<?xml version="1.0" encoding="UTF-8" standalone="no"?>
<!DOCTYPE svg PUBLIC "-//W3C//DTD SVG 1.1//EN" "http://www.w3.org/Graphics/SVG/1.1/DTD/svg11.dtd">
<svg width="100%" height="100%" viewBox="0 0 2348 2097" version="1.1" xmlns="http://www.w3.org/2000/svg" xmlns:xlink="http://www.w3.org/1999/xlink" xml:space="preserve" xmlns:serif="http://www.serif.com/" style="fill-rule:evenodd;clip-rule:evenodd;stroke-linejoin:round;stroke-miterlimit:2;">
    <g id="Artboard1" transform="matrix(1.37429,0,0,1.43432,-366.916,182.958)">
        <rect x="266.986" y="-127.557" width="1707.93" height="1461.81" style="fill:none;"/>
        <g>
            <g transform="matrix(2.3593,0,0,2.25919,1108.59,612.085)">
                <g transform="matrix(1,0,0,1,-600,-300)">
                    <g id="_-000000ff" serif:id="#000000ff">
                        <path d="M599.42,0L600.61,0C615.18,9.05 630.27,17.24 645.04,25.95C715.38,66.61 785.72,107.25 856.06,147.88C857.16,148.58 858.26,149.3 859.36,150.03C859.71,195.68 859.36,241.34 859.48,287C859.42,340.02 859.48,393.04 859.42,446.06C859.36,447.32 859.29,448.59 859.22,449.86C828.69,467.89 797.86,485.41 767.21,503.23C713.78,534.12 660.37,565.05 606.93,595.92C604.76,597.19 602.64,598.55 600.58,600L599.39,600C595.04,597.14 590.53,594.54 586.01,591.98C515.86,551.46 445.73,510.91 375.58,470.4C363.98,463.51 352.07,457.14 340.64,449.97C340.42,445.98 340.42,441.99 340.48,438C340.52,367.33 340.53,296.66 340.55,226C340.67,200.71 340.29,175.41 340.78,150.13C345.93,146.74 351.42,143.91 356.72,140.76C425.58,100.93 494.44,61.12 563.3,21.28C575.3,14.13 587.72,7.64 599.42,0M588.94,41.9C517.15,83.44 445.35,125 373.54,166.51C372.2,167.21 370.93,168.32 371.3,170.01C371.33,211.67 371.31,253.34 371.28,295C371.43,340.84 371,386.69 371.43,432.52C436.33,469.94 501.16,507.48 566.02,544.97C577.38,551.35 588.47,558.25 599.97,564.38C603.12,562.79 606.14,560.95 609.19,559.17C681.61,517.27 754.02,475.36 826.46,433.48C827.82,432.81 828.97,431.64 828.66,429.98C828.7,359.66 828.71,289.33 828.72,219.01C828.65,201.84 828.98,184.65 828.57,167.49C763.24,129.81 697.98,92.02 632.68,54.28C621.75,48.14 611.1,41.49 600.03,35.61C596.23,37.53 592.63,39.8 588.94,41.9Z" style="fill:white;fill-rule:nonzero;"/>
                        <path d="M524.46,112.45C549.93,97.31 575.41,82.17 601.02,67.26C630.96,84.42 660.52,102.26 690.34,119.63C692.26,120.74 694.15,121.92 696.02,123.13C690.42,132.96 683.74,142.15 677.69,151.71C651.9,136.92 626.8,120.89 601.02,106.08C585.68,114.27 570.41,122.64 555.29,131.22C555.13,180.83 555.23,230.45 555.24,280.06C593.74,280.57 632.26,280.1 670.77,280.29C670.96,292.91 670.85,305.54 670.83,318.16C632.33,318.62 593.8,318.23 555.3,318.35C555.1,375.56 555.27,432.78 555.21,490C555.15,496 555.38,502 555.05,508C544.71,501.74 534.7,494.95 524.5,488.47C524.19,381.98 524.46,275.49 524.37,169C524.44,150.15 524.24,131.3 524.46,112.45Z" style="fill:white;fill-rule:nonzero;"/>
                        <path d="M467.98,149.96C477.71,144.71 486.96,138.56 496.86,133.63C497.04,239.42 496.88,345.21 496.94,451C496.87,458.4 497.07,465.8 496.85,473.2C490.4,470.22 484.53,466.15 478.27,462.81C476.33,461.51 473.48,460.73 472.94,458.15C458.67,404.09 444.38,350.04 430.09,295.98C428.47,290.61 427.64,285 425.43,279.82C425.19,330.42 425.63,381.04 425.21,431.64C422.68,430.68 420.31,429.39 418.02,427.97C411.56,424.06 404.87,420.52 398.44,416.56C398.19,343.47 398.44,270.37 398.39,197.28C404.35,193.09 410.96,189.93 417.16,186.13C420.28,184.35 423.25,182.23 426.68,181.06C437.37,217.21 447.82,253.42 458.47,289.57C460.19,295.08 461.37,300.77 463.59,306.12C463.57,255.73 463.59,205.33 463.58,154.94C463.03,152.15 466.13,151.19 467.98,149.96Z" style="fill:white;fill-rule:nonzero;"/>
                        <path d="M710.15,133.89C711.48,133.51 712.54,134.82 713.7,135.3C735.5,149.18 757.38,162.93 779.22,176.75C790.19,183.9 801.59,190.45 812.31,197.96C812.37,210.31 812.57,222.68 812.19,235.02C797.46,225.73 783.54,215.17 768.8,205.91C768.34,221.26 768.73,236.64 768.6,252C768.53,315.49 768.74,378.99 768.5,442.47C759.01,448.01 749.43,453.38 739.99,458.99C738.36,459.94 736.64,460.71 734.92,461.43C734.51,411.63 734.83,361.81 734.73,312C734.61,270.12 734.8,228.23 734.62,186.34C721.37,177.51 707.79,169.18 694.48,160.45C693.79,158.83 695.42,157.41 696.04,156.04C700.87,148.74 705.14,141.07 710.15,133.89Z" style="fill:white;fill-rule:nonzero;"/>
                    </g>
                </g>
            </g>
        </g>
        <g>
            <g transform="matrix(0.985216,0,0,0.984108,3.94716,21.2036)">
                <g>
                    <g transform="matrix(3.35519,-1.8633,1.54217,2.55511,-2234.43,583.05)">
                        <g transform="matrix(20.4762,0,0,20.4762,654.203,346.568)">
                            <path d="M0.04,-0L0.04,-0.72L0.386,-0.72L0.548,-0.304L0.541,-0.72L0.767,-0.72L0.767,-0L0.427,-0L0.262,-0.407L0.269,-0L0.04,-0Z" style="fill:white;fill-rule:nonzero;"/>
                        </g>
                        <g transform="matrix(20.4762,0,0,20.4762,670.727,346.568)">
                            <path d="M0.42,-0.729C0.541,-0.729 0.637,-0.693 0.708,-0.62C0.776,-0.551 0.81,-0.462 0.81,-0.353C0.81,-0.243 0.778,-0.155 0.714,-0.089C0.645,-0.018 0.547,0.018 0.42,0.018C0.29,0.018 0.19,-0.017 0.119,-0.087C0.053,-0.152 0.02,-0.24 0.02,-0.351C0.02,-0.462 0.055,-0.552 0.126,-0.621C0.199,-0.693 0.297,-0.729 0.42,-0.729ZM0.337,-0.337C0.337,-0.293 0.343,-0.256 0.354,-0.227C0.369,-0.19 0.39,-0.171 0.417,-0.171C0.442,-0.171 0.462,-0.191 0.477,-0.232C0.49,-0.267 0.497,-0.307 0.497,-0.352C0.497,-0.399 0.491,-0.439 0.479,-0.472C0.464,-0.513 0.441,-0.534 0.411,-0.534C0.381,-0.534 0.36,-0.512 0.349,-0.467C0.341,-0.436 0.337,-0.393 0.337,-0.337Z" style="fill:white;fill-rule:nonzero;"/>
                        </g>
                        <g transform="matrix(20.4762,0,0,20.4762,693.743,346.568)">
                            <path d="M0.04,-0L0.04,-0.72L0.598,-0.72L0.598,-0.533L0.342,-0.533L0.342,-0.448L0.598,-0.447L0.598,-0.253L0.342,-0.253L0.342,-0L0.04,-0Z" style="fill:white;fill-rule:nonzero;"/>
                        </g>
                        <g transform="matrix(20.4762,0,0,20.4762,705.987,346.568)">
                            <path d="M0.04,-0.239L0.04,-0.72L0.342,-0.72L0.342,-0.288L0.343,-0.273L0.344,-0.265L0.345,-0.248C0.345,-0.225 0.353,-0.208 0.369,-0.197C0.374,-0.194 0.379,-0.191 0.384,-0.189C0.389,-0.187 0.395,-0.186 0.4,-0.186C0.411,-0.186 0.421,-0.19 0.432,-0.197C0.448,-0.208 0.456,-0.225 0.456,-0.248L0.458,-0.267L0.458,-0.273L0.459,-0.288L0.459,-0.72L0.761,-0.72L0.761,-0.239C0.761,-0.156 0.737,-0.094 0.69,-0.053C0.639,-0.008 0.556,0.014 0.443,0.014L0.358,0.014C0.245,0.014 0.163,-0.008 0.111,-0.053C0.064,-0.094 0.04,-0.156 0.04,-0.239Z" style="fill:white;fill-rule:nonzero;"/>
                        </g>
                        <g transform="matrix(20.4762,0,0,20.4762,722.389,346.568)">
                            <path d="M0.74,-0.419L0.465,-0.419L0.465,-0.435C0.465,-0.46 0.459,-0.479 0.447,-0.493C0.434,-0.506 0.42,-0.513 0.403,-0.513C0.384,-0.513 0.368,-0.503 0.357,-0.484C0.346,-0.464 0.337,-0.429 0.332,-0.379L0.33,-0.332C0.33,-0.319 0.33,-0.308 0.331,-0.298C0.332,-0.288 0.334,-0.274 0.338,-0.257C0.341,-0.239 0.346,-0.224 0.352,-0.213C0.357,-0.201 0.364,-0.193 0.372,-0.188C0.38,-0.183 0.389,-0.18 0.399,-0.18C0.41,-0.18 0.42,-0.183 0.431,-0.189C0.441,-0.195 0.448,-0.203 0.453,-0.213C0.457,-0.222 0.46,-0.233 0.463,-0.245C0.465,-0.257 0.466,-0.275 0.466,-0.3L0.465,-0.312L0.741,-0.312L0.741,-0.279C0.741,-0.27 0.741,-0.264 0.74,-0.259C0.731,-0.173 0.705,-0.109 0.661,-0.066C0.617,-0.023 0.549,0.004 0.458,0.016C0.435,0.019 0.42,0.02 0.411,0.021C0.402,0.021 0.395,0.021 0.39,0.021C0.375,0.021 0.363,0.02 0.354,0.019C0.345,0.018 0.338,0.017 0.333,0.017C0.235,0.003 0.159,-0.035 0.105,-0.097C0.05,-0.158 0.023,-0.24 0.023,-0.341C0.023,-0.382 0.027,-0.423 0.036,-0.466C0.052,-0.547 0.086,-0.611 0.139,-0.658C0.191,-0.705 0.257,-0.733 0.338,-0.74C0.358,-0.742 0.377,-0.743 0.396,-0.743C0.493,-0.743 0.571,-0.72 0.629,-0.673C0.686,-0.626 0.722,-0.56 0.736,-0.475C0.737,-0.467 0.738,-0.458 0.739,-0.448C0.74,-0.438 0.74,-0.428 0.74,-0.419Z" style="fill:white;fill-rule:nonzero;"/>
                        </g>
                        <g transform="matrix(20.4762,0,0,20.4762,738.012,346.568)">
                            <path d="M0.04,-0L0.04,-0.72L0.335,-0.72L0.335,-0L0.04,-0ZM0.335,-0.382L0.462,-0.72L0.773,-0.72L0.603,-0.386L0.799,-0L0.484,-0L0.335,-0.382Z" style="fill:white;fill-rule:nonzero;"/>
                        </g>
                        <g transform="matrix(20.4762,0,0,20.4762,753.861,346.568)">
                            <rect x="0.04" y="-0.72" width="0.302" height="0.72" style="fill:white;fill-rule:nonzero;"/>
                        </g>
                        <g transform="matrix(20.4762,0,0,20.4762,761.683,346.568)">
                            <path d="M0.04,-0L0.04,-0.72L0.386,-0.72L0.548,-0.304L0.541,-0.72L0.767,-0.72L0.767,-0L0.427,-0L0.262,-0.407L0.269,-0L0.04,-0Z" style="fill:white;fill-rule:nonzero;"/>
                        </g>
                        <g transform="matrix(20.4762,0,0,20.4762,784.145,346.568)">
                            <path d="M0,-0.533L0,-0.72L0.648,-0.72L0.648,-0.533L0.475,-0.533L0.475,-0L0.173,-0L0.173,-0.533L0,-0.533Z" style="fill:white;fill-rule:nonzero;"/>
                        </g>
                        <g transform="matrix(20.4762,0,0,20.4762,797.414,346.568)">
                            <rect x="0.04" y="-0.72" width="0.302" height="0.72" style="fill:white;fill-rule:nonzero;"/>
                        </g>
                        <g transform="matrix(20.4762,0,0,20.4762,805.235,346.568)">
                            <path d="M0.04,-0L0.04,-0.72L0.437,-0.72L0.516,-0.315L0.595,-0.72L0.993,-0.72L0.993,-0L0.757,-0L0.764,-0.447L0.75,-0.447L0.639,-0L0.393,-0L0.283,-0.447L0.269,-0.447L0.276,-0L0.04,-0Z" style="fill:white;fill-rule:nonzero;"/>
                        </g>
                        <g transform="matrix(20.4762,0,0,20.4762,826.387,346.568)">
                            <path d="M0.04,-0L0.04,-0.72L0.601,-0.72L0.601,-0.533L0.328,-0.533L0.328,-0.46L0.59,-0.46L0.59,-0.266L0.328,-0.266L0.328,-0.187L0.603,-0.187L0.603,-0L0.04,-0Z" style="fill:white;fill-rule:nonzero;"/>
                        </g>
                    </g>
                    <g transform="matrix(3.35519,-1.8633,1.54217,2.55511,-1581.86,1667.96)">
                        <g transform="matrix(20.4762,0,0,20.4762,654.203,346.568)">
                            <path d="M0.04,-0L0.04,-0.72L0.386,-0.72L0.548,-0.304L0.541,-0.72L0.767,-0.72L0.767,-0L0.427,-0L0.262,-0.407L0.269,-0L0.04,-0Z" style="fill:white;fill-rule:nonzero;"/>
                        </g>
                        <g transform="matrix(20.4762,0,0,20.4762,670.727,346.568)">
                            <path d="M0.42,-0.729C0.541,-0.729 0.637,-0.693 0.708,-0.62C0.776,-0.551 0.81,-0.462 0.81,-0.353C0.81,-0.243 0.778,-0.155 0.714,-0.089C0.645,-0.018 0.547,0.018 0.42,0.018C0.29,0.018 0.19,-0.017 0.119,-0.087C0.053,-0.152 0.02,-0.24 0.02,-0.351C0.02,-0.462 0.055,-0.552 0.126,-0.621C0.199,-0.693 0.297,-0.729 0.42,-0.729ZM0.337,-0.337C0.337,-0.293 0.343,-0.256 0.354,-0.227C0.369,-0.19 0.39,-0.171 0.417,-0.171C0.442,-0.171 0.462,-0.191 0.477,-0.232C0.49,-0.267 0.497,-0.307 0.497,-0.352C0.497,-0.399 0.491,-0.439 0.479,-0.472C0.464,-0.513 0.441,-0.534 0.411,-0.534C0.381,-0.534 0.36,-0.512 0.349,-0.467C0.341,-0.436 0.337,-0.393 0.337,-0.337Z" style="fill:white;fill-rule:nonzero;"/>
                        </g>
                        <g transform="matrix(20.4762,0,0,20.4762,693.743,346.568)">
                            <path d="M0.04,-0L0.04,-0.72L0.598,-0.72L0.598,-0.533L0.342,-0.533L0.342,-0.448L0.598,-0.447L0.598,-0.253L0.342,-0.253L0.342,-0L0.04,-0Z" style="fill:white;fill-rule:nonzero;"/>
                        </g>
                        <g transform="matrix(20.4762,0,0,20.4762,705.987,346.568)">
                            <path d="M0.04,-0.239L0.04,-0.72L0.342,-0.72L0.342,-0.288L0.343,-0.273L0.344,-0.265L0.345,-0.248C0.345,-0.225 0.353,-0.208 0.369,-0.197C0.374,-0.194 0.379,-0.191 0.384,-0.189C0.389,-0.187 0.395,-0.186 0.4,-0.186C0.411,-0.186 0.421,-0.19 0.432,-0.197C0.448,-0.208 0.456,-0.225 0.456,-0.248L0.458,-0.267L0.458,-0.273L0.459,-0.288L0.459,-0.72L0.761,-0.72L0.761,-0.239C0.761,-0.156 0.737,-0.094 0.69,-0.053C0.639,-0.008 0.556,0.014 0.443,0.014L0.358,0.014C0.245,0.014 0.163,-0.008 0.111,-0.053C0.064,-0.094 0.04,-0.156 0.04,-0.239Z" style="fill:white;fill-rule:nonzero;"/>
                        </g>
                        <g transform="matrix(20.4762,0,0,20.4762,722.389,346.568)">
                            <path d="M0.74,-0.419L0.465,-0.419L0.465,-0.435C0.465,-0.46 0.459,-0.479 0.447,-0.493C0.434,-0.506 0.42,-0.513 0.403,-0.513C0.384,-0.513 0.368,-0.503 0.357,-0.484C0.346,-0.464 0.337,-0.429 0.332,-0.379L0.33,-0.332C0.33,-0.319 0.33,-0.308 0.331,-0.298C0.332,-0.288 0.334,-0.274 0.338,-0.257C0.341,-0.239 0.346,-0.224 0.352,-0.213C0.357,-0.201 0.364,-0.193 0.372,-0.188C0.38,-0.183 0.389,-0.18 0.399,-0.18C0.41,-0.18 0.42,-0.183 0.431,-0.189C0.441,-0.195 0.448,-0.203 0.453,-0.213C0.457,-0.222 0.46,-0.233 0.463,-0.245C0.465,-0.257 0.466,-0.275 0.466,-0.3L0.465,-0.312L0.741,-0.312L0.741,-0.279C0.741,-0.27 0.741,-0.264 0.74,-0.259C0.731,-0.173 0.705,-0.109 0.661,-0.066C0.617,-0.023 0.549,0.004 0.458,0.016C0.435,0.019 0.42,0.02 0.411,0.021C0.402,0.021 0.395,0.021 0.39,0.021C0.375,0.021 0.363,0.02 0.354,0.019C0.345,0.018 0.338,0.017 0.333,0.017C0.235,0.003 0.159,-0.035 0.105,-0.097C0.05,-0.158 0.023,-0.24 0.023,-0.341C0.023,-0.382 0.027,-0.423 0.036,-0.466C0.052,-0.547 0.086,-0.611 0.139,-0.658C0.191,-0.705 0.257,-0.733 0.338,-0.74C0.358,-0.742 0.377,-0.743 0.396,-0.743C0.493,-0.743 0.571,-0.72 0.629,-0.673C0.686,-0.626 0.722,-0.56 0.736,-0.475C0.737,-0.467 0.738,-0.458 0.739,-0.448C0.74,-0.438 0.74,-0.428 0.74,-0.419Z" style="fill:white;fill-rule:nonzero;"/>
                        </g>
                        <g transform="matrix(20.4762,0,0,20.4762,738.012,346.568)">
                            <path d="M0.04,-0L0.04,-0.72L0.335,-0.72L0.335,-0L0.04,-0ZM0.335,-0.382L0.462,-0.72L0.773,-0.72L0.603,-0.386L0.799,-0L0.484,-0L0.335,-0.382Z" style="fill:white;fill-rule:nonzero;"/>
                        </g>
                        <g transform="matrix(20.4762,0,0,20.4762,753.861,346.568)">
                            <rect x="0.04" y="-0.72" width="0.302" height="0.72" style="fill:white;fill-rule:nonzero;"/>
                        </g>
                        <g transform="matrix(20.4762,0,0,20.4762,761.683,346.568)">
                            <path d="M0.04,-0L0.04,-0.72L0.386,-0.72L0.548,-0.304L0.541,-0.72L0.767,-0.72L0.767,-0L0.427,-0L0.262,-0.407L0.269,-0L0.04,-0Z" style="fill:white;fill-rule:nonzero;"/>
                        </g>
                        <g transform="matrix(20.4762,0,0,20.4762,784.145,346.568)">
                            <path d="M0,-0.533L0,-0.72L0.648,-0.72L0.648,-0.533L0.475,-0.533L0.475,-0L0.173,-0L0.173,-0.533L0,-0.533Z" style="fill:white;fill-rule:nonzero;"/>
                        </g>
                        <g transform="matrix(20.4762,0,0,20.4762,797.414,346.568)">
                            <rect x="0.04" y="-0.72" width="0.302" height="0.72" style="fill:white;fill-rule:nonzero;"/>
                        </g>
                        <g transform="matrix(20.4762,0,0,20.4762,805.235,346.568)">
                            <path d="M0.04,-0L0.04,-0.72L0.437,-0.72L0.516,-0.315L0.595,-0.72L0.993,-0.72L0.993,-0L0.757,-0L0.764,-0.447L0.75,-0.447L0.639,-0L0.393,-0L0.283,-0.447L0.269,-0.447L0.276,-0L0.04,-0Z" style="fill:white;fill-rule:nonzero;"/>
                        </g>
                        <g transform="matrix(20.4762,0,0,20.4762,826.387,346.568)">
                            <path d="M0.04,-0L0.04,-0.72L0.601,-0.72L0.601,-0.533L0.328,-0.533L0.328,-0.46L0.59,-0.46L0.59,-0.266L0.328,-0.266L0.328,-0.187L0.603,-0.187L0.603,-0L0.04,-0Z" style="fill:white;fill-rule:nonzero;"/>
                        </g>
                    </g>
                    <g transform="matrix(3.35241,1.86263,-1.54162,2.55299,-531.384,-2199.62)">
                        <g transform="matrix(20.4907,0,0,20.4907,654.203,346.578)">
                            <path d="M0.04,-0L0.04,-0.72L0.386,-0.72L0.548,-0.304L0.541,-0.72L0.767,-0.72L0.767,-0L0.427,-0L0.262,-0.407L0.269,-0L0.04,-0Z" style="fill:white;fill-rule:nonzero;"/>
                        </g>
                        <g transform="matrix(20.4907,0,0,20.4907,670.739,346.578)">
                            <path d="M0.42,-0.729C0.541,-0.729 0.637,-0.693 0.708,-0.62C0.776,-0.551 0.81,-0.462 0.81,-0.353C0.81,-0.243 0.778,-0.155 0.714,-0.089C0.645,-0.018 0.547,0.018 0.42,0.018C0.29,0.018 0.19,-0.017 0.119,-0.087C0.053,-0.152 0.02,-0.24 0.02,-0.351C0.02,-0.462 0.055,-0.552 0.126,-0.621C0.199,-0.693 0.297,-0.729 0.42,-0.729ZM0.337,-0.337C0.337,-0.293 0.343,-0.256 0.354,-0.227C0.369,-0.19 0.39,-0.171 0.417,-0.171C0.442,-0.171 0.462,-0.191 0.477,-0.232C0.49,-0.267 0.497,-0.307 0.497,-0.352C0.497,-0.399 0.491,-0.439 0.479,-0.472C0.464,-0.513 0.441,-0.534 0.411,-0.534C0.381,-0.534 0.36,-0.512 0.349,-0.467C0.341,-0.436 0.337,-0.393 0.337,-0.337Z" style="fill:white;fill-rule:nonzero;"/>
                        </g>
                        <g transform="matrix(20.4907,0,0,20.4907,693.771,346.578)">
                            <path d="M0.04,-0L0.04,-0.72L0.598,-0.72L0.598,-0.533L0.342,-0.533L0.342,-0.448L0.598,-0.447L0.598,-0.253L0.342,-0.253L0.342,-0L0.04,-0Z" style="fill:white;fill-rule:nonzero;"/>
                        </g>
                        <g transform="matrix(20.4907,0,0,20.4907,706.024,346.578)">
                            <path d="M0.04,-0.239L0.04,-0.72L0.342,-0.72L0.342,-0.288L0.343,-0.273L0.344,-0.265L0.345,-0.248C0.345,-0.225 0.353,-0.208 0.369,-0.197C0.374,-0.194 0.379,-0.191 0.384,-0.189C0.389,-0.187 0.395,-0.186 0.4,-0.186C0.411,-0.186 0.421,-0.19 0.432,-0.197C0.448,-0.208 0.456,-0.225 0.456,-0.248L0.458,-0.267L0.458,-0.273L0.459,-0.288L0.459,-0.72L0.761,-0.72L0.761,-0.239C0.761,-0.156 0.737,-0.094 0.69,-0.053C0.639,-0.008 0.556,0.014 0.443,0.014L0.358,0.014C0.245,0.014 0.163,-0.008 0.111,-0.053C0.064,-0.094 0.04,-0.156 0.04,-0.239Z" style="fill:white;fill-rule:nonzero;"/>
                        </g>
                        <g transform="matrix(20.4907,0,0,20.4907,722.437,346.578)">
                            <path d="M0.74,-0.419L0.465,-0.419L0.465,-0.435C0.465,-0.46 0.459,-0.479 0.447,-0.493C0.434,-0.506 0.42,-0.513 0.403,-0.513C0.384,-0.513 0.368,-0.503 0.357,-0.484C0.346,-0.464 0.337,-0.429 0.332,-0.379L0.33,-0.332C0.33,-0.319 0.33,-0.308 0.331,-0.298C0.332,-0.288 0.334,-0.274 0.338,-0.257C0.341,-0.239 0.346,-0.224 0.352,-0.213C0.357,-0.201 0.364,-0.193 0.372,-0.188C0.38,-0.183 0.389,-0.18 0.399,-0.18C0.41,-0.18 0.42,-0.183 0.431,-0.189C0.441,-0.195 0.448,-0.203 0.453,-0.213C0.457,-0.222 0.46,-0.233 0.463,-0.245C0.465,-0.257 0.466,-0.275 0.466,-0.3L0.465,-0.312L0.741,-0.312L0.741,-0.279C0.741,-0.27 0.741,-0.264 0.74,-0.259C0.731,-0.173 0.705,-0.109 0.661,-0.066C0.617,-0.023 0.549,0.004 0.458,0.016C0.435,0.019 0.42,0.02 0.411,0.021C0.402,0.021 0.395,0.021 0.39,0.021C0.375,0.021 0.363,0.02 0.354,0.019C0.345,0.018 0.338,0.017 0.333,0.017C0.235,0.003 0.159,-0.035 0.105,-0.097C0.05,-0.158 0.023,-0.24 0.023,-0.341C0.023,-0.382 0.027,-0.423 0.036,-0.466C0.052,-0.547 0.086,-0.611 0.139,-0.658C0.191,-0.705 0.257,-0.733 0.338,-0.74C0.358,-0.742 0.377,-0.743 0.396,-0.743C0.493,-0.743 0.571,-0.72 0.629,-0.673C0.686,-0.626 0.722,-0.56 0.736,-0.475C0.737,-0.467 0.738,-0.458 0.739,-0.448C0.74,-0.438 0.74,-0.428 0.74,-0.419Z" style="fill:white;fill-rule:nonzero;"/>
                        </g>
                        <g transform="matrix(20.4907,0,0,20.4907,738.072,346.578)">
                            <path d="M0.04,-0L0.04,-0.72L0.335,-0.72L0.335,-0L0.04,-0ZM0.335,-0.382L0.462,-0.72L0.773,-0.72L0.603,-0.386L0.799,-0L0.484,-0L0.335,-0.382Z" style="fill:white;fill-rule:nonzero;"/>
                        </g>
                        <g transform="matrix(20.4907,0,0,20.4907,753.931,346.578)">
                            <rect x="0.04" y="-0.72" width="0.302" height="0.72" style="fill:white;fill-rule:nonzero;"/>
                        </g>
                        <g transform="matrix(20.4907,0,0,20.4907,761.759,346.578)">
                            <path d="M0.04,-0L0.04,-0.72L0.386,-0.72L0.548,-0.304L0.541,-0.72L0.767,-0.72L0.767,-0L0.427,-0L0.262,-0.407L0.269,-0L0.04,-0Z" style="fill:white;fill-rule:nonzero;"/>
                        </g>
                        <g transform="matrix(20.4907,0,0,20.4907,784.237,346.578)">
                            <path d="M0,-0.533L0,-0.72L0.648,-0.72L0.648,-0.533L0.475,-0.533L0.475,-0L0.173,-0L0.173,-0.533L0,-0.533Z" style="fill:white;fill-rule:nonzero;"/>
                        </g>
                        <g transform="matrix(20.4907,0,0,20.4907,797.515,346.578)">
                            <rect x="0.04" y="-0.72" width="0.302" height="0.72" style="fill:white;fill-rule:nonzero;"/>
                        </g>
                        <g transform="matrix(20.4907,0,0,20.4907,805.343,346.578)">
                            <path d="M0.04,-0L0.04,-0.72L0.437,-0.72L0.516,-0.315L0.595,-0.72L0.993,-0.72L0.993,-0L0.757,-0L0.764,-0.447L0.75,-0.447L0.639,-0L0.393,-0L0.283,-0.447L0.269,-0.447L0.276,-0L0.04,-0Z" style="fill:white;fill-rule:nonzero;"/>
                        </g>
                        <g transform="matrix(20.4907,0,0,20.4907,826.509,346.578)">
                            <path d="M0.04,-0L0.04,-0.72L0.601,-0.72L0.601,-0.533L0.328,-0.533L0.328,-0.46L0.59,-0.46L0.59,-0.266L0.328,-0.266L0.328,-0.187L0.603,-0.187L0.603,-0L0.04,-0Z" style="fill:white;fill-rule:nonzero;"/>
                        </g>
                    </g>
                    <g transform="matrix(3.35241,1.86263,-1.54162,2.55299,-1188.13,-1114.01)">
                        <g transform="matrix(20.4907,0,0,20.4907,654.203,346.578)">
                            <path d="M0.04,-0L0.04,-0.72L0.386,-0.72L0.548,-0.304L0.541,-0.72L0.767,-0.72L0.767,-0L0.427,-0L0.262,-0.407L0.269,-0L0.04,-0Z" style="fill:white;fill-rule:nonzero;"/>
                        </g>
                        <g transform="matrix(20.4907,0,0,20.4907,670.739,346.578)">
                            <path d="M0.42,-0.729C0.541,-0.729 0.637,-0.693 0.708,-0.62C0.776,-0.551 0.81,-0.462 0.81,-0.353C0.81,-0.243 0.778,-0.155 0.714,-0.089C0.645,-0.018 0.547,0.018 0.42,0.018C0.29,0.018 0.19,-0.017 0.119,-0.087C0.053,-0.152 0.02,-0.24 0.02,-0.351C0.02,-0.462 0.055,-0.552 0.126,-0.621C0.199,-0.693 0.297,-0.729 0.42,-0.729ZM0.337,-0.337C0.337,-0.293 0.343,-0.256 0.354,-0.227C0.369,-0.19 0.39,-0.171 0.417,-0.171C0.442,-0.171 0.462,-0.191 0.477,-0.232C0.49,-0.267 0.497,-0.307 0.497,-0.352C0.497,-0.399 0.491,-0.439 0.479,-0.472C0.464,-0.513 0.441,-0.534 0.411,-0.534C0.381,-0.534 0.36,-0.512 0.349,-0.467C0.341,-0.436 0.337,-0.393 0.337,-0.337Z" style="fill:white;fill-rule:nonzero;"/>
                        </g>
                        <g transform="matrix(20.4907,0,0,20.4907,693.771,346.578)">
                            <path d="M0.04,-0L0.04,-0.72L0.598,-0.72L0.598,-0.533L0.342,-0.533L0.342,-0.448L0.598,-0.447L0.598,-0.253L0.342,-0.253L0.342,-0L0.04,-0Z" style="fill:white;fill-rule:nonzero;"/>
                        </g>
                        <g transform="matrix(20.4907,0,0,20.4907,706.024,346.578)">
                            <path d="M0.04,-0.239L0.04,-0.72L0.342,-0.72L0.342,-0.288L0.343,-0.273L0.344,-0.265L0.345,-0.248C0.345,-0.225 0.353,-0.208 0.369,-0.197C0.374,-0.194 0.379,-0.191 0.384,-0.189C0.389,-0.187 0.395,-0.186 0.4,-0.186C0.411,-0.186 0.421,-0.19 0.432,-0.197C0.448,-0.208 0.456,-0.225 0.456,-0.248L0.458,-0.267L0.458,-0.273L0.459,-0.288L0.459,-0.72L0.761,-0.72L0.761,-0.239C0.761,-0.156 0.737,-0.094 0.69,-0.053C0.639,-0.008 0.556,0.014 0.443,0.014L0.358,0.014C0.245,0.014 0.163,-0.008 0.111,-0.053C0.064,-0.094 0.04,-0.156 0.04,-0.239Z" style="fill:white;fill-rule:nonzero;"/>
                        </g>
                        <g transform="matrix(20.4907,0,0,20.4907,722.437,346.578)">
                            <path d="M0.74,-0.419L0.465,-0.419L0.465,-0.435C0.465,-0.46 0.459,-0.479 0.447,-0.493C0.434,-0.506 0.42,-0.513 0.403,-0.513C0.384,-0.513 0.368,-0.503 0.357,-0.484C0.346,-0.464 0.337,-0.429 0.332,-0.379L0.33,-0.332C0.33,-0.319 0.33,-0.308 0.331,-0.298C0.332,-0.288 0.334,-0.274 0.338,-0.257C0.341,-0.239 0.346,-0.224 0.352,-0.213C0.357,-0.201 0.364,-0.193 0.372,-0.188C0.38,-0.183 0.389,-0.18 0.399,-0.18C0.41,-0.18 0.42,-0.183 0.431,-0.189C0.441,-0.195 0.448,-0.203 0.453,-0.213C0.457,-0.222 0.46,-0.233 0.463,-0.245C0.465,-0.257 0.466,-0.275 0.466,-0.3L0.465,-0.312L0.741,-0.312L0.741,-0.279C0.741,-0.27 0.741,-0.264 0.74,-0.259C0.731,-0.173 0.705,-0.109 0.661,-0.066C0.617,-0.023 0.549,0.004 0.458,0.016C0.435,0.019 0.42,0.02 0.411,0.021C0.402,0.021 0.395,0.021 0.39,0.021C0.375,0.021 0.363,0.02 0.354,0.019C0.345,0.018 0.338,0.017 0.333,0.017C0.235,0.003 0.159,-0.035 0.105,-0.097C0.05,-0.158 0.023,-0.24 0.023,-0.341C0.023,-0.382 0.027,-0.423 0.036,-0.466C0.052,-0.547 0.086,-0.611 0.139,-0.658C0.191,-0.705 0.257,-0.733 0.338,-0.74C0.358,-0.742 0.377,-0.743 0.396,-0.743C0.493,-0.743 0.571,-0.72 0.629,-0.673C0.686,-0.626 0.722,-0.56 0.736,-0.475C0.737,-0.467 0.738,-0.458 0.739,-0.448C0.74,-0.438 0.74,-0.428 0.74,-0.419Z" style="fill:white;fill-rule:nonzero;"/>
                        </g>
                        <g transform="matrix(20.4907,0,0,20.4907,738.072,346.578)">
                            <path d="M0.04,-0L0.04,-0.72L0.335,-0.72L0.335,-0L0.04,-0ZM0.335,-0.382L0.462,-0.72L0.773,-0.72L0.603,-0.386L0.799,-0L0.484,-0L0.335,-0.382Z" style="fill:white;fill-rule:nonzero;"/>
                        </g>
                        <g transform="matrix(20.4907,0,0,20.4907,753.931,346.578)">
                            <rect x="0.04" y="-0.72" width="0.302" height="0.72" style="fill:white;fill-rule:nonzero;"/>
                        </g>
                        <g transform="matrix(20.4907,0,0,20.4907,761.759,346.578)">
                            <path d="M0.04,-0L0.04,-0.72L0.386,-0.72L0.548,-0.304L0.541,-0.72L0.767,-0.72L0.767,-0L0.427,-0L0.262,-0.407L0.269,-0L0.04,-0Z" style="fill:white;fill-rule:nonzero;"/>
                        </g>
                        <g transform="matrix(20.4907,0,0,20.4907,784.237,346.578)">
                            <path d="M0,-0.533L0,-0.72L0.648,-0.72L0.648,-0.533L0.475,-0.533L0.475,-0L0.173,-0L0.173,-0.533L0,-0.533Z" style="fill:white;fill-rule:nonzero;"/>
                        </g>
                        <g transform="matrix(20.4907,0,0,20.4907,797.515,346.578)">
                            <rect x="0.04" y="-0.72" width="0.302" height="0.72" style="fill:white;fill-rule:nonzero;"/>
                        </g>
                        <g transform="matrix(20.4907,0,0,20.4907,805.343,346.578)">
                            <path d="M0.04,-0L0.04,-0.72L0.437,-0.72L0.516,-0.315L0.595,-0.72L0.993,-0.72L0.993,-0L0.757,-0L0.764,-0.447L0.75,-0.447L0.639,-0L0.393,-0L0.283,-0.447L0.269,-0.447L0.276,-0L0.04,-0Z" style="fill:white;fill-rule:nonzero;"/>
                        </g>
                        <g transform="matrix(20.4907,0,0,20.4907,826.509,346.578)">
                            <path d="M0.04,-0L0.04,-0.72L0.601,-0.72L0.601,-0.533L0.328,-0.533L0.328,-0.46L0.59,-0.46L0.59,-0.266L0.328,-0.266L0.328,-0.187L0.603,-0.187L0.603,-0L0.04,-0Z" style="fill:white;fill-rule:nonzero;"/>
                        </g>
                    </g>
                    <g transform="matrix(-0.00250887,3.72523,-3.08321,-0.0019106,2822.63,-2179.93)">
                        <g transform="matrix(20.4412,0,0,20.4412,654.203,346.543)">
                            <path d="M0.04,-0L0.04,-0.72L0.386,-0.72L0.548,-0.304L0.541,-0.72L0.767,-0.72L0.767,-0L0.427,-0L0.262,-0.407L0.269,-0L0.04,-0Z" style="fill:white;fill-rule:nonzero;"/>
                        </g>
                        <g transform="matrix(20.4412,0,0,20.4412,670.699,346.543)">
                            <path d="M0.42,-0.729C0.541,-0.729 0.637,-0.693 0.708,-0.62C0.776,-0.551 0.81,-0.462 0.81,-0.353C0.81,-0.243 0.778,-0.155 0.714,-0.089C0.645,-0.018 0.547,0.018 0.42,0.018C0.29,0.018 0.19,-0.017 0.119,-0.087C0.053,-0.152 0.02,-0.24 0.02,-0.351C0.02,-0.462 0.055,-0.552 0.126,-0.621C0.199,-0.693 0.297,-0.729 0.42,-0.729ZM0.337,-0.337C0.337,-0.293 0.343,-0.256 0.354,-0.227C0.369,-0.19 0.39,-0.171 0.417,-0.171C0.442,-0.171 0.462,-0.191 0.477,-0.232C0.49,-0.267 0.497,-0.307 0.497,-0.352C0.497,-0.399 0.491,-0.439 0.479,-0.472C0.464,-0.513 0.441,-0.534 0.411,-0.534C0.381,-0.534 0.36,-0.512 0.349,-0.467C0.341,-0.436 0.337,-0.393 0.337,-0.337Z" style="fill:white;fill-rule:nonzero;"/>
                        </g>
                        <g transform="matrix(20.4412,0,0,20.4412,693.675,346.543)">
                            <path d="M0.04,-0L0.04,-0.72L0.598,-0.72L0.598,-0.533L0.342,-0.533L0.342,-0.448L0.598,-0.447L0.598,-0.253L0.342,-0.253L0.342,-0L0.04,-0Z" style="fill:white;fill-rule:nonzero;"/>
                        </g>
                        <g transform="matrix(20.4412,0,0,20.4412,705.899,346.543)">
                            <path d="M0.04,-0.239L0.04,-0.72L0.342,-0.72L0.342,-0.288L0.343,-0.273L0.344,-0.265L0.345,-0.248C0.345,-0.225 0.353,-0.208 0.369,-0.197C0.374,-0.194 0.379,-0.191 0.384,-0.189C0.389,-0.187 0.395,-0.186 0.4,-0.186C0.411,-0.186 0.421,-0.19 0.432,-0.197C0.448,-0.208 0.456,-0.225 0.456,-0.248L0.458,-0.267L0.458,-0.273L0.459,-0.288L0.459,-0.72L0.761,-0.72L0.761,-0.239C0.761,-0.156 0.737,-0.094 0.69,-0.053C0.639,-0.008 0.556,0.014 0.443,0.014L0.358,0.014C0.245,0.014 0.163,-0.008 0.111,-0.053C0.064,-0.094 0.04,-0.156 0.04,-0.239Z" style="fill:white;fill-rule:nonzero;"/>
                        </g>
                        <g transform="matrix(20.4412,0,0,20.4412,722.272,346.543)">
                            <path d="M0.74,-0.419L0.465,-0.419L0.465,-0.435C0.465,-0.46 0.459,-0.479 0.447,-0.493C0.434,-0.506 0.42,-0.513 0.403,-0.513C0.384,-0.513 0.368,-0.503 0.357,-0.484C0.346,-0.464 0.337,-0.429 0.332,-0.379L0.33,-0.332C0.33,-0.319 0.33,-0.308 0.331,-0.298C0.332,-0.288 0.334,-0.274 0.338,-0.257C0.341,-0.239 0.346,-0.224 0.352,-0.213C0.357,-0.201 0.364,-0.193 0.372,-0.188C0.38,-0.183 0.389,-0.18 0.399,-0.18C0.41,-0.18 0.42,-0.183 0.431,-0.189C0.441,-0.195 0.448,-0.203 0.453,-0.213C0.457,-0.222 0.46,-0.233 0.463,-0.245C0.465,-0.257 0.466,-0.275 0.466,-0.3L0.465,-0.312L0.741,-0.312L0.741,-0.279C0.741,-0.27 0.741,-0.264 0.74,-0.259C0.731,-0.173 0.705,-0.109 0.661,-0.066C0.617,-0.023 0.549,0.004 0.458,0.016C0.435,0.019 0.42,0.02 0.411,0.021C0.402,0.021 0.395,0.021 0.39,0.021C0.375,0.021 0.363,0.02 0.354,0.019C0.345,0.018 0.338,0.017 0.333,0.017C0.235,0.003 0.159,-0.035 0.105,-0.097C0.05,-0.158 0.023,-0.24 0.023,-0.341C0.023,-0.382 0.027,-0.423 0.036,-0.466C0.052,-0.547 0.086,-0.611 0.139,-0.658C0.191,-0.705 0.257,-0.733 0.338,-0.74C0.358,-0.742 0.377,-0.743 0.396,-0.743C0.493,-0.743 0.571,-0.72 0.629,-0.673C0.686,-0.626 0.722,-0.56 0.736,-0.475C0.737,-0.467 0.738,-0.458 0.739,-0.448C0.74,-0.438 0.74,-0.428 0.74,-0.419Z" style="fill:white;fill-rule:nonzero;"/>
                        </g>
                        <g transform="matrix(20.4412,0,0,20.4412,737.869,346.543)">
                            <path d="M0.04,-0L0.04,-0.72L0.335,-0.72L0.335,-0L0.04,-0ZM0.335,-0.382L0.462,-0.72L0.773,-0.72L0.603,-0.386L0.799,-0L0.484,-0L0.335,-0.382Z" style="fill:white;fill-rule:nonzero;"/>
                        </g>
                        <g transform="matrix(20.4412,0,0,20.4412,753.69,346.543)">
                            <rect x="0.04" y="-0.72" width="0.302" height="0.72" style="fill:white;fill-rule:nonzero;"/>
                        </g>
                        <g transform="matrix(20.4412,0,0,20.4412,761.499,346.543)">
                            <path d="M0.04,-0L0.04,-0.72L0.386,-0.72L0.548,-0.304L0.541,-0.72L0.767,-0.72L0.767,-0L0.427,-0L0.262,-0.407L0.269,-0L0.04,-0Z" style="fill:white;fill-rule:nonzero;"/>
                        </g>
                        <g transform="matrix(20.4412,0,0,20.4412,783.923,346.543)">
                            <path d="M0,-0.533L0,-0.72L0.648,-0.72L0.648,-0.533L0.475,-0.533L0.475,-0L0.173,-0L0.173,-0.533L0,-0.533Z" style="fill:white;fill-rule:nonzero;"/>
                        </g>
                        <g transform="matrix(20.4412,0,0,20.4412,797.169,346.543)">
                            <rect x="0.04" y="-0.72" width="0.302" height="0.72" style="fill:white;fill-rule:nonzero;"/>
                        </g>
                        <g transform="matrix(20.4412,0,0,20.4412,804.977,346.543)">
                            <path d="M0.04,-0L0.04,-0.72L0.437,-0.72L0.516,-0.315L0.595,-0.72L0.993,-0.72L0.993,-0L0.757,-0L0.764,-0.447L0.75,-0.447L0.639,-0L0.393,-0L0.283,-0.447L0.269,-0.447L0.276,-0L0.04,-0Z" style="fill:white;fill-rule:nonzero;"/>
                        </g>
                        <g transform="matrix(20.4412,0,0,20.4412,826.093,346.543)">
                            <path d="M0.04,-0L0.04,-0.72L0.601,-0.72L0.601,-0.533L0.328,-0.533L0.328,-0.46L0.59,-0.46L0.59,-0.266L0.328,-0.266L0.328,-0.187L0.603,-0.187L0.603,-0L0.04,-0Z" style="fill:white;fill-rule:nonzero;"/>
                        </g>
                    </g>
                    <g transform="matrix(-9.68025e-05,-3.72523,3.08321,-7.37189e-05,-578.77,3382.85)">
                        <g transform="matrix(20.4412,0,0,20.4412,654.203,346.543)">
                            <path d="M0.04,-0L0.04,-0.72L0.386,-0.72L0.548,-0.304L0.541,-0.72L0.767,-0.72L0.767,-0L0.427,-0L0.262,-0.407L0.269,-0L0.04,-0Z" style="fill:white;fill-rule:nonzero;"/>
                        </g>
                        <g transform="matrix(20.4412,0,0,20.4412,670.699,346.543)">
                            <path d="M0.42,-0.729C0.541,-0.729 0.637,-0.693 0.708,-0.62C0.776,-0.551 0.81,-0.462 0.81,-0.353C0.81,-0.243 0.778,-0.155 0.714,-0.089C0.645,-0.018 0.547,0.018 0.42,0.018C0.29,0.018 0.19,-0.017 0.119,-0.087C0.053,-0.152 0.02,-0.24 0.02,-0.351C0.02,-0.462 0.055,-0.552 0.126,-0.621C0.199,-0.693 0.297,-0.729 0.42,-0.729ZM0.337,-0.337C0.337,-0.293 0.343,-0.256 0.354,-0.227C0.369,-0.19 0.39,-0.171 0.417,-0.171C0.442,-0.171 0.462,-0.191 0.477,-0.232C0.49,-0.267 0.497,-0.307 0.497,-0.352C0.497,-0.399 0.491,-0.439 0.479,-0.472C0.464,-0.513 0.441,-0.534 0.411,-0.534C0.381,-0.534 0.36,-0.512 0.349,-0.467C0.341,-0.436 0.337,-0.393 0.337,-0.337Z" style="fill:white;fill-rule:nonzero;"/>
                        </g>
                        <g transform="matrix(20.4412,0,0,20.4412,693.675,346.543)">
                            <path d="M0.04,-0L0.04,-0.72L0.598,-0.72L0.598,-0.533L0.342,-0.533L0.342,-0.448L0.598,-0.447L0.598,-0.253L0.342,-0.253L0.342,-0L0.04,-0Z" style="fill:white;fill-rule:nonzero;"/>
                        </g>
                        <g transform="matrix(20.4412,0,0,20.4412,705.899,346.543)">
                            <path d="M0.04,-0.239L0.04,-0.72L0.342,-0.72L0.342,-0.288L0.343,-0.273L0.344,-0.265L0.345,-0.248C0.345,-0.225 0.353,-0.208 0.369,-0.197C0.374,-0.194 0.379,-0.191 0.384,-0.189C0.389,-0.187 0.395,-0.186 0.4,-0.186C0.411,-0.186 0.421,-0.19 0.432,-0.197C0.448,-0.208 0.456,-0.225 0.456,-0.248L0.458,-0.267L0.458,-0.273L0.459,-0.288L0.459,-0.72L0.761,-0.72L0.761,-0.239C0.761,-0.156 0.737,-0.094 0.69,-0.053C0.639,-0.008 0.556,0.014 0.443,0.014L0.358,0.014C0.245,0.014 0.163,-0.008 0.111,-0.053C0.064,-0.094 0.04,-0.156 0.04,-0.239Z" style="fill:white;fill-rule:nonzero;"/>
                        </g>
                        <g transform="matrix(20.4412,0,0,20.4412,722.272,346.543)">
                            <path d="M0.74,-0.419L0.465,-0.419L0.465,-0.435C0.465,-0.46 0.459,-0.479 0.447,-0.493C0.434,-0.506 0.42,-0.513 0.403,-0.513C0.384,-0.513 0.368,-0.503 0.357,-0.484C0.346,-0.464 0.337,-0.429 0.332,-0.379L0.33,-0.332C0.33,-0.319 0.33,-0.308 0.331,-0.298C0.332,-0.288 0.334,-0.274 0.338,-0.257C0.341,-0.239 0.346,-0.224 0.352,-0.213C0.357,-0.201 0.364,-0.193 0.372,-0.188C0.38,-0.183 0.389,-0.18 0.399,-0.18C0.41,-0.18 0.42,-0.183 0.431,-0.189C0.441,-0.195 0.448,-0.203 0.453,-0.213C0.457,-0.222 0.46,-0.233 0.463,-0.245C0.465,-0.257 0.466,-0.275 0.466,-0.3L0.465,-0.312L0.741,-0.312L0.741,-0.279C0.741,-0.27 0.741,-0.264 0.74,-0.259C0.731,-0.173 0.705,-0.109 0.661,-0.066C0.617,-0.023 0.549,0.004 0.458,0.016C0.435,0.019 0.42,0.02 0.411,0.021C0.402,0.021 0.395,0.021 0.39,0.021C0.375,0.021 0.363,0.02 0.354,0.019C0.345,0.018 0.338,0.017 0.333,0.017C0.235,0.003 0.159,-0.035 0.105,-0.097C0.05,-0.158 0.023,-0.24 0.023,-0.341C0.023,-0.382 0.027,-0.423 0.036,-0.466C0.052,-0.547 0.086,-0.611 0.139,-0.658C0.191,-0.705 0.257,-0.733 0.338,-0.74C0.358,-0.742 0.377,-0.743 0.396,-0.743C0.493,-0.743 0.571,-0.72 0.629,-0.673C0.686,-0.626 0.722,-0.56 0.736,-0.475C0.737,-0.467 0.738,-0.458 0.739,-0.448C0.74,-0.438 0.74,-0.428 0.74,-0.419Z" style="fill:white;fill-rule:nonzero;"/>
                        </g>
                        <g transform="matrix(20.4412,0,0,20.4412,737.869,346.543)">
                            <path d="M0.04,-0L0.04,-0.72L0.335,-0.72L0.335,-0L0.04,-0ZM0.335,-0.382L0.462,-0.72L0.773,-0.72L0.603,-0.386L0.799,-0L0.484,-0L0.335,-0.382Z" style="fill:white;fill-rule:nonzero;"/>
                        </g>
                        <g transform="matrix(20.4412,0,0,20.4412,753.69,346.543)">
                            <rect x="0.04" y="-0.72" width="0.302" height="0.72" style="fill:white;fill-rule:nonzero;"/>
                        </g>
                        <g transform="matrix(20.4412,0,0,20.4412,761.499,346.543)">
                            <path d="M0.04,-0L0.04,-0.72L0.386,-0.72L0.548,-0.304L0.541,-0.72L0.767,-0.72L0.767,-0L0.427,-0L0.262,-0.407L0.269,-0L0.04,-0Z" style="fill:white;fill-rule:nonzero;"/>
                        </g>
                        <g transform="matrix(20.4412,0,0,20.4412,783.923,346.543)">
                            <path d="M0,-0.533L0,-0.72L0.648,-0.72L0.648,-0.533L0.475,-0.533L0.475,-0L0.173,-0L0.173,-0.533L0,-0.533Z" style="fill:white;fill-rule:nonzero;"/>
                        </g>
                        <g transform="matrix(20.4412,0,0,20.4412,797.169,346.543)">
                            <rect x="0.04" y="-0.72" width="0.302" height="0.72" style="fill:white;fill-rule:nonzero;"/>
                        </g>
                        <g transform="matrix(20.4412,0,0,20.4412,804.977,346.543)">
                            <path d="M0.04,-0L0.04,-0.72L0.437,-0.72L0.516,-0.315L0.595,-0.72L0.993,-0.72L0.993,-0L0.757,-0L0.764,-0.447L0.75,-0.447L0.639,-0L0.393,-0L0.283,-0.447L0.269,-0.447L0.276,-0L0.04,-0Z" style="fill:white;fill-rule:nonzero;"/>
                        </g>
                        <g transform="matrix(20.4412,0,0,20.4412,826.093,346.543)">
                            <path d="M0.04,-0L0.04,-0.72L0.601,-0.72L0.601,-0.533L0.328,-0.533L0.328,-0.46L0.59,-0.46L0.59,-0.266L0.328,-0.266L0.328,-0.187L0.603,-0.187L0.603,-0L0.04,-0Z" style="fill:white;fill-rule:nonzero;"/>
                        </g>
                    </g>
                </g>
            </g>
        </g>
    </g>
</svg>
