<?xml version="1.0" encoding="UTF-8" standalone="no"?>
<!DOCTYPE svg PUBLIC "-//W3C//DTD SVG 1.1//EN" "http://www.w3.org/Graphics/SVG/1.1/DTD/svg11.dtd">
<svg width="100%" height="100%" viewBox="0 0 2348 2097" version="1.1" xmlns="http://www.w3.org/2000/svg" xmlns:xlink="http://www.w3.org/1999/xlink" xml:space="preserve" xmlns:serif="http://www.serif.com/" style="fill-rule:evenodd;clip-rule:evenodd;stroke-linejoin:round;stroke-miterlimit:2;">
    <g id="Artboard1" transform="matrix(1.37429,0,0,1.43432,-366.916,182.958)">
        <rect x="266.986" y="-127.557" width="1707.93" height="1461.81" style="fill:none;"/>
        <clipPath id="_clip1">
            <rect x="266.986" y="-127.557" width="1707.93" height="1461.81"/>
        </clipPath>
        <g clip-path="url(#_clip1)">
            <g>
                <g>
                    <g transform="matrix(2.3593,0,0,2.25919,1108.59,612.085)">
                        <g transform="matrix(1,0,0,1,-600,-300)">
                            <g id="_-000000ff" serif:id="#000000ff">
                                <path d="M599.42,0L600.61,0C615.18,9.05 630.27,17.24 645.04,25.95C715.38,66.61 785.72,107.25 856.06,147.88C857.16,148.58 858.26,149.3 859.36,150.03C859.71,195.68 859.36,241.34 859.48,287C859.42,340.02 859.48,393.04 859.42,446.06C859.36,447.32 859.29,448.59 859.22,449.86C828.69,467.89 797.86,485.41 767.21,503.23C713.78,534.12 660.37,565.05 606.93,595.92C604.76,597.19 602.64,598.55 600.58,600L599.39,600C595.04,597.14 590.53,594.54 586.01,591.98C515.86,551.46 445.73,510.91 375.58,470.4C363.98,463.51 352.07,457.14 340.64,449.97C340.42,445.98 340.42,441.99 340.48,438C340.52,367.33 340.53,296.66 340.55,226C340.67,200.71 340.29,175.41 340.78,150.13C345.93,146.74 351.42,143.91 356.72,140.76C425.58,100.93 494.44,61.12 563.3,21.28C575.3,14.13 587.72,7.64 599.42,0M588.94,41.9C517.15,83.44 445.35,125 373.54,166.51C372.2,167.21 370.93,168.32 371.3,170.01C371.33,211.67 371.31,253.34 371.28,295C371.43,340.84 371,386.69 371.43,432.52C436.33,469.94 501.16,507.48 566.02,544.97C577.38,551.35 588.47,558.25 599.97,564.38C603.12,562.79 606.14,560.95 609.19,559.17C681.61,517.27 754.02,475.36 826.46,433.48C827.82,432.81 828.97,431.64 828.66,429.98C828.7,359.66 828.71,289.33 828.72,219.01C828.65,201.84 828.98,184.65 828.57,167.49C763.24,129.81 697.98,92.02 632.68,54.28C621.75,48.14 611.1,41.49 600.03,35.61C596.23,37.53 592.63,39.8 588.94,41.9Z" style="fill:url(#_Linear2);fill-rule:nonzero;"/>
                                <path d="M524.46,112.45C549.93,97.31 575.41,82.17 601.02,67.26C630.96,84.42 660.52,102.26 690.34,119.63C692.26,120.74 694.15,121.92 696.02,123.13C690.42,132.96 683.74,142.15 677.69,151.71C651.9,136.92 626.8,120.89 601.02,106.08C585.68,114.27 570.41,122.64 555.29,131.22C555.13,180.83 555.23,230.45 555.24,280.06C593.74,280.57 632.26,280.1 670.77,280.29C670.96,292.91 670.85,305.54 670.83,318.16C632.33,318.62 593.8,318.23 555.3,318.35C555.1,375.56 555.27,432.78 555.21,490C555.15,496 555.38,502 555.05,508C544.71,501.74 534.7,494.95 524.5,488.47C524.19,381.98 524.46,275.49 524.37,169C524.44,150.15 524.24,131.3 524.46,112.45Z" style="fill:url(#_Linear3);fill-rule:nonzero;"/>
                                <path d="M467.98,149.96C477.71,144.71 486.96,138.56 496.86,133.63C497.04,239.42 496.88,345.21 496.94,451C496.87,458.4 497.07,465.8 496.85,473.2C490.4,470.22 484.53,466.15 478.27,462.81C476.33,461.51 473.48,460.73 472.94,458.15C458.67,404.09 444.38,350.04 430.09,295.98C428.47,290.61 427.64,285 425.43,279.82C425.19,330.42 425.63,381.04 425.21,431.64C422.68,430.68 420.31,429.39 418.02,427.97C411.56,424.06 404.87,420.52 398.44,416.56C398.19,343.47 398.44,270.37 398.39,197.28C404.35,193.09 410.96,189.93 417.16,186.13C420.28,184.35 423.25,182.23 426.68,181.06C437.37,217.21 447.82,253.42 458.47,289.57C460.19,295.08 461.37,300.77 463.59,306.12C463.57,255.73 463.59,205.33 463.58,154.94C463.03,152.15 466.13,151.19 467.98,149.96Z" style="fill:url(#_Linear4);fill-rule:nonzero;"/>
                                <path d="M710.15,133.89C711.48,133.51 712.54,134.82 713.7,135.3C735.5,149.18 757.38,162.93 779.22,176.75C790.19,183.9 801.59,190.45 812.31,197.96C812.37,210.31 812.57,222.68 812.19,235.02C797.46,225.73 783.54,215.17 768.8,205.91C768.34,221.26 768.73,236.64 768.6,252C768.53,315.49 768.74,378.99 768.5,442.47C759.01,448.01 749.43,453.38 739.99,458.99C738.36,459.94 736.64,460.71 734.92,461.43C734.51,411.63 734.83,361.81 734.73,312C734.61,270.12 734.8,228.23 734.62,186.34C721.37,177.51 707.79,169.18 694.48,160.45C693.79,158.83 695.42,157.41 696.04,156.04C700.87,148.74 705.14,141.07 710.15,133.89Z" style="fill:url(#_Linear5);fill-rule:nonzero;"/>
                            </g>
                        </g>
                    </g>
                </g>
                <g id="_-000000ff1" serif:id="#000000ff" transform="matrix(2.34583,0,0,2.25919,-300.2,-65.6718)">
                    <path d="M599.42,0L600.61,0C615.18,9.05 630.27,17.24 645.04,25.95C715.38,66.61 785.72,107.25 856.06,147.88C857.16,148.58 858.26,149.3 859.36,150.03C859.71,195.68 859.36,241.34 859.48,287C859.42,340.02 859.48,393.04 859.42,446.06C859.36,447.32 859.29,448.59 859.22,449.86C828.69,467.89 797.86,485.41 767.21,503.23C713.78,534.12 660.37,565.05 606.93,595.92C604.76,597.19 602.64,598.55 600.58,600L599.39,600C595.04,597.14 590.53,594.54 586.01,591.98C515.86,551.46 445.73,510.91 375.58,470.4C363.98,463.51 352.07,457.14 340.64,449.97C340.42,445.98 340.42,441.99 340.48,438C340.52,367.33 340.53,296.66 340.55,226C340.67,200.71 340.29,175.41 340.78,150.13C345.93,146.74 351.42,143.91 356.72,140.76C425.58,100.93 494.44,61.12 563.3,21.28C575.3,14.13 587.72,7.64 599.42,0M588.94,41.9C517.15,83.44 445.35,125 373.54,166.51C372.2,167.21 370.93,168.32 371.3,170.01C371.33,211.67 371.31,253.34 371.28,295C371.43,340.84 371,386.69 371.43,432.52C436.33,469.94 501.16,507.48 566.02,544.97C577.38,551.35 588.47,558.25 599.97,564.38C603.12,562.79 606.14,560.95 609.19,559.17C681.61,517.27 754.02,475.36 826.46,433.48C827.82,432.81 828.97,431.64 828.66,429.98C828.7,359.66 828.71,289.33 828.72,219.01C828.65,201.84 828.98,184.65 828.57,167.49C763.24,129.81 697.98,92.02 632.68,54.28C621.75,48.14 611.1,41.49 600.03,35.61C596.23,37.53 592.63,39.8 588.94,41.9Z" style="fill:rgb(255,0,251);fill-rule:nonzero;"/>
                    <path d="M599.42,0L600.61,0C615.18,9.05 630.27,17.24 645.04,25.95C715.38,66.61 785.72,107.25 856.06,147.88C857.16,148.58 858.26,149.3 859.36,150.03C859.71,195.68 859.36,241.34 859.48,287C859.42,340.02 859.48,393.04 859.42,446.06C859.36,447.32 859.29,448.59 859.22,449.86C828.69,467.89 797.86,485.41 767.21,503.23C713.78,534.12 660.37,565.05 606.93,595.92C604.76,597.19 602.64,598.55 600.58,600L599.39,600C595.04,597.14 590.53,594.54 586.01,591.98C515.86,551.46 445.73,510.91 375.58,470.4C363.98,463.51 352.07,457.14 340.64,449.97C340.42,445.98 340.42,441.99 340.48,438C340.52,367.33 340.53,296.66 340.55,226C340.67,200.71 340.29,175.41 340.78,150.13C345.93,146.74 351.42,143.91 356.72,140.76C425.58,100.93 494.44,61.12 563.3,21.28C575.3,14.13 587.72,7.64 599.42,0M588.94,41.9C517.15,83.44 445.35,125 373.54,166.51C372.2,167.21 370.93,168.32 371.3,170.01C371.33,211.67 371.31,253.34 371.28,295C371.43,340.84 371,386.69 371.43,432.52C436.33,469.94 501.16,507.48 566.02,544.97C577.38,551.35 588.47,558.25 599.97,564.38C603.12,562.79 606.14,560.95 609.19,559.17C681.61,517.27 754.02,475.36 826.46,433.48C827.82,432.81 828.97,431.64 828.66,429.98C828.7,359.66 828.71,289.33 828.72,219.01C828.65,201.84 828.98,184.65 828.57,167.49C763.24,129.81 697.98,92.02 632.68,54.28C621.75,48.14 611.1,41.49 600.03,35.61C596.23,37.53 592.63,39.8 588.94,41.9Z" style="fill:rgb(255,0,251);fill-rule:nonzero;"/>
                    <path d="M599.42,0L600.61,0C615.18,9.05 630.27,17.24 645.04,25.95C715.38,66.61 785.72,107.25 856.06,147.88C857.16,148.58 858.26,149.3 859.36,150.03C859.71,195.68 859.36,241.34 859.48,287C859.42,340.02 859.48,393.04 859.42,446.06C859.36,447.32 859.29,448.59 859.22,449.86C828.69,467.89 797.86,485.41 767.21,503.23C713.78,534.12 660.37,565.05 606.93,595.92C604.76,597.19 602.64,598.55 600.58,600L599.39,600C595.04,597.14 590.53,594.54 586.01,591.98C515.86,551.46 445.73,510.91 375.58,470.4C363.98,463.51 352.07,457.14 340.64,449.97C340.42,445.98 340.42,441.99 340.48,438C340.52,367.33 340.53,296.66 340.55,226C340.67,200.71 340.29,175.41 340.78,150.13C345.93,146.74 351.42,143.91 356.72,140.76C425.58,100.93 494.44,61.12 563.3,21.28C575.3,14.13 587.72,7.64 599.42,0M588.94,41.9C517.15,83.44 445.35,125 373.54,166.51C372.2,167.21 370.93,168.32 371.3,170.01C371.33,211.67 371.31,253.34 371.28,295C371.43,340.84 371,386.69 371.43,432.52C436.33,469.94 501.16,507.48 566.02,544.97C577.38,551.35 588.47,558.25 599.97,564.38C603.12,562.79 606.14,560.95 609.19,559.17C681.61,517.27 754.02,475.36 826.46,433.48C827.82,432.81 828.97,431.64 828.66,429.98C828.7,359.66 828.71,289.33 828.72,219.01C828.65,201.84 828.98,184.65 828.57,167.49C763.24,129.81 697.98,92.02 632.68,54.28C621.75,48.14 611.1,41.49 600.03,35.61C596.23,37.53 592.63,39.8 588.94,41.9Z" style="fill:rgb(255,0,251);fill-rule:nonzero;"/>
                    <path d="M524.46,112.45C549.93,97.31 575.41,82.17 601.02,67.26C630.96,84.42 660.52,102.26 690.34,119.63C692.26,120.74 694.15,121.92 696.02,123.13C690.42,132.96 683.74,142.15 677.69,151.71C651.9,136.92 626.8,120.89 601.02,106.08C585.68,114.27 570.41,122.64 555.29,131.22C555.13,180.83 555.23,230.45 555.24,280.06C593.74,280.57 632.26,280.1 670.77,280.29C670.96,292.91 670.85,305.54 670.83,318.16C632.33,318.62 593.8,318.23 555.3,318.35C555.1,375.56 555.27,432.78 555.21,490C555.15,496 555.38,502 555.05,508C544.71,501.74 534.7,494.95 524.5,488.47C524.19,381.98 524.46,275.49 524.37,169C524.44,150.15 524.24,131.3 524.46,112.45Z" style="fill:rgb(255,0,251);fill-rule:nonzero;"/>
                    <path d="M524.46,112.45C549.93,97.31 575.41,82.17 601.02,67.26C630.96,84.42 660.52,102.26 690.34,119.63C692.26,120.74 694.15,121.92 696.02,123.13C690.42,132.96 683.74,142.15 677.69,151.71C651.9,136.92 626.8,120.89 601.02,106.08C585.68,114.27 570.41,122.64 555.29,131.22C555.13,180.83 555.23,230.45 555.24,280.06C593.74,280.57 632.26,280.1 670.77,280.29C670.96,292.91 670.85,305.54 670.83,318.16C632.33,318.62 593.8,318.23 555.3,318.35C555.1,375.56 555.27,432.78 555.21,490C555.15,496 555.38,502 555.05,508C544.71,501.74 534.7,494.95 524.5,488.47C524.19,381.98 524.46,275.49 524.37,169C524.44,150.15 524.24,131.3 524.46,112.45Z" style="fill:rgb(255,0,251);fill-rule:nonzero;"/>
                    <path d="M524.46,112.45C549.93,97.31 575.41,82.17 601.02,67.26C630.96,84.42 660.52,102.26 690.34,119.63C692.26,120.74 694.15,121.92 696.02,123.13C690.42,132.96 683.74,142.15 677.69,151.71C651.9,136.92 626.8,120.89 601.02,106.08C585.68,114.27 570.41,122.64 555.29,131.22C555.13,180.83 555.23,230.45 555.24,280.06C593.74,280.57 632.26,280.1 670.77,280.29C670.96,292.91 670.85,305.54 670.83,318.16C632.33,318.62 593.8,318.23 555.3,318.35C555.1,375.56 555.27,432.78 555.21,490C555.15,496 555.38,502 555.05,508C544.71,501.74 534.7,494.95 524.5,488.47C524.19,381.98 524.46,275.49 524.37,169C524.44,150.15 524.24,131.3 524.46,112.45Z" style="fill:rgb(255,0,251);fill-rule:nonzero;"/>
                    <path d="M524.46,112.45C549.93,97.31 575.41,82.17 601.02,67.26C630.96,84.42 660.52,102.26 690.34,119.63C692.26,120.74 694.15,121.92 696.02,123.13C690.42,132.96 683.74,142.15 677.69,151.71C651.9,136.92 626.8,120.89 601.02,106.08C585.68,114.27 570.41,122.64 555.29,131.22C555.13,180.83 555.23,230.45 555.24,280.06C593.74,280.57 632.26,280.1 670.77,280.29C670.96,292.91 670.85,305.54 670.83,318.16C632.33,318.62 593.8,318.23 555.3,318.35C555.1,375.56 555.27,432.78 555.21,490C555.15,496 555.38,502 555.05,508C544.71,501.74 534.7,494.95 524.5,488.47C524.19,381.98 524.46,275.49 524.37,169C524.44,150.15 524.24,131.3 524.46,112.45Z" style="fill:rgb(255,0,251);fill-rule:nonzero;"/>
                    <path d="M467.98,149.96C477.71,144.71 486.96,138.56 496.86,133.63C497.04,239.42 496.88,345.21 496.94,451C496.87,458.4 497.07,465.8 496.85,473.2C490.4,470.22 484.53,466.15 478.27,462.81C476.33,461.51 473.48,460.73 472.94,458.15C458.67,404.09 444.38,350.04 430.09,295.98C428.47,290.61 427.64,285 425.43,279.82C425.19,330.42 425.63,381.04 425.21,431.64C422.68,430.68 420.31,429.39 418.02,427.97C411.56,424.06 404.87,420.52 398.44,416.56C398.19,343.47 398.44,270.37 398.39,197.28C404.35,193.09 410.96,189.93 417.16,186.13C420.28,184.35 423.25,182.23 426.68,181.06C437.37,217.21 447.82,253.42 458.47,289.57C460.19,295.08 461.37,300.77 463.59,306.12C463.57,255.73 463.59,205.33 463.58,154.94C463.03,152.15 466.13,151.19 467.98,149.96Z" style="fill:rgb(255,0,251);fill-rule:nonzero;"/>
                    <path d="M467.98,149.96C477.71,144.71 486.96,138.56 496.86,133.63C497.04,239.42 496.88,345.21 496.94,451C496.87,458.4 497.07,465.8 496.85,473.2C490.4,470.22 484.53,466.15 478.27,462.81C476.33,461.51 473.48,460.73 472.94,458.15C458.67,404.09 444.38,350.04 430.09,295.98C428.47,290.61 427.64,285 425.43,279.82C425.19,330.42 425.63,381.04 425.21,431.64C422.68,430.68 420.31,429.39 418.02,427.97C411.56,424.06 404.87,420.52 398.44,416.56C398.19,343.47 398.44,270.37 398.39,197.28C404.35,193.09 410.96,189.93 417.16,186.13C420.28,184.35 423.25,182.23 426.68,181.06C437.37,217.21 447.82,253.42 458.47,289.57C460.19,295.08 461.37,300.77 463.59,306.12C463.57,255.73 463.59,205.33 463.58,154.94C463.03,152.15 466.13,151.19 467.98,149.96Z" style="fill:rgb(255,0,251);fill-rule:nonzero;"/>
                    <path d="M467.98,149.96C477.71,144.71 486.96,138.56 496.86,133.63C497.04,239.42 496.88,345.21 496.94,451C496.87,458.4 497.07,465.8 496.85,473.2C490.4,470.22 484.53,466.15 478.27,462.81C476.33,461.51 473.48,460.73 472.94,458.15C458.67,404.09 444.38,350.04 430.09,295.98C428.47,290.61 427.64,285 425.43,279.82C425.19,330.42 425.63,381.04 425.21,431.64C422.68,430.68 420.31,429.39 418.02,427.97C411.56,424.06 404.87,420.52 398.44,416.56C398.19,343.47 398.44,270.37 398.39,197.28C404.35,193.09 410.96,189.93 417.16,186.13C420.28,184.35 423.25,182.23 426.68,181.06C437.37,217.21 447.82,253.42 458.47,289.57C460.19,295.08 461.37,300.77 463.59,306.12C463.57,255.73 463.59,205.33 463.58,154.94C463.03,152.15 466.13,151.19 467.98,149.96Z" style="fill:rgb(255,0,251);fill-rule:nonzero;"/>
                    <path d="M467.98,149.96C477.71,144.71 486.96,138.56 496.86,133.63C497.04,239.42 496.88,345.21 496.94,451C496.87,458.4 497.07,465.8 496.85,473.2C490.4,470.22 484.53,466.15 478.27,462.81C476.33,461.51 473.48,460.73 472.94,458.15C458.67,404.09 444.38,350.04 430.09,295.98C428.47,290.61 427.64,285 425.43,279.82C425.19,330.42 425.63,381.04 425.21,431.64C422.68,430.68 420.31,429.39 418.02,427.97C411.56,424.06 404.87,420.52 398.44,416.56C398.19,343.47 398.44,270.37 398.39,197.28C404.35,193.09 410.96,189.93 417.16,186.13C420.28,184.35 423.25,182.23 426.68,181.06C437.37,217.21 447.82,253.42 458.47,289.57C460.19,295.08 461.37,300.77 463.59,306.12C463.57,255.73 463.59,205.33 463.58,154.94C463.03,152.15 466.13,151.19 467.98,149.96Z" style="fill:rgb(255,0,251);fill-rule:nonzero;"/>
                    <path d="M710.15,133.89C711.48,133.51 712.54,134.82 713.7,135.3C735.5,149.18 757.38,162.93 779.22,176.75C790.19,183.9 801.59,190.45 812.31,197.96C812.37,210.31 812.57,222.68 812.19,235.02C797.46,225.73 783.54,215.17 768.8,205.91C768.34,221.26 768.73,236.64 768.6,252C768.53,315.49 768.74,378.99 768.5,442.47C759.01,448.01 749.43,453.38 739.99,458.99C738.36,459.94 736.64,460.71 734.92,461.43C734.51,411.63 734.83,361.81 734.73,312C734.61,270.12 734.8,228.23 734.62,186.34C721.37,177.51 707.79,169.18 694.48,160.45C693.79,158.83 695.42,157.41 696.04,156.04C700.87,148.74 705.14,141.07 710.15,133.89Z" style="fill:rgb(255,0,251);fill-rule:nonzero;"/>
                    <path d="M710.15,133.89C711.48,133.51 712.54,134.82 713.7,135.3C735.5,149.18 757.38,162.93 779.22,176.75C790.19,183.9 801.59,190.45 812.31,197.96C812.37,210.31 812.57,222.68 812.19,235.02C797.46,225.73 783.54,215.17 768.8,205.91C768.34,221.26 768.73,236.64 768.6,252C768.53,315.49 768.74,378.99 768.5,442.47C759.01,448.01 749.43,453.38 739.99,458.99C738.36,459.94 736.64,460.71 734.92,461.43C734.51,411.63 734.83,361.81 734.73,312C734.61,270.12 734.8,228.23 734.62,186.34C721.37,177.51 707.79,169.18 694.48,160.45C693.79,158.83 695.42,157.41 696.04,156.04C700.87,148.74 705.14,141.07 710.15,133.89Z" style="fill:rgb(255,0,251);fill-rule:nonzero;"/>
                    <path d="M710.15,133.89C711.48,133.51 712.54,134.82 713.7,135.3C735.5,149.18 757.38,162.93 779.22,176.75C790.19,183.9 801.59,190.45 812.31,197.96C812.37,210.31 812.57,222.68 812.19,235.02C797.46,225.73 783.54,215.17 768.8,205.91C768.34,221.26 768.73,236.64 768.6,252C768.53,315.49 768.74,378.99 768.5,442.47C759.01,448.01 749.43,453.38 739.99,458.99C738.36,459.94 736.64,460.71 734.92,461.43C734.51,411.63 734.83,361.81 734.73,312C734.61,270.12 734.8,228.23 734.62,186.34C721.37,177.51 707.79,169.18 694.48,160.45C693.79,158.83 695.42,157.41 696.04,156.04C700.87,148.74 705.14,141.07 710.15,133.89Z" style="fill:rgb(255,0,251);fill-rule:nonzero;"/>
                    <path d="M710.15,133.89C711.48,133.51 712.54,134.82 713.7,135.3C735.5,149.18 757.38,162.93 779.22,176.75C790.19,183.9 801.59,190.45 812.31,197.96C812.37,210.31 812.57,222.68 812.19,235.02C797.46,225.73 783.54,215.17 768.8,205.91C768.34,221.26 768.73,236.64 768.6,252C768.53,315.49 768.74,378.99 768.5,442.47C759.01,448.01 749.43,453.38 739.99,458.99C738.36,459.94 736.64,460.71 734.92,461.43C734.51,411.63 734.83,361.81 734.73,312C734.61,270.12 734.8,228.23 734.62,186.34C721.37,177.51 707.79,169.18 694.48,160.45C693.79,158.83 695.42,157.41 696.04,156.04C700.87,148.74 705.14,141.07 710.15,133.89Z" style="fill:rgb(255,0,251);fill-rule:nonzero;"/>
                </g>
            </g>
            <g transform="matrix(0.985216,0,0,0.984108,3.94716,21.2036)">
                <g transform="matrix(3.35519,-1.8633,1.54217,2.55511,-2234.43,583.05)">
                    <path d="M655.022,346.568L655.022,331.825L662.107,331.825L665.424,340.343L665.281,331.825L669.908,331.825L669.908,346.568L662.946,346.568L659.568,338.234L659.711,346.568L655.022,346.568Z" style="fill:url(#_Linear6);fill-rule:nonzero;"/>
                    <path d="M679.327,331.641C681.798,331.641 683.764,332.385 685.225,333.873C686.617,335.292 687.313,337.115 687.313,339.34C687.313,341.592 686.658,343.394 685.347,344.746C683.928,346.206 681.921,346.937 679.327,346.937C676.665,346.937 674.611,346.22 673.164,344.787C671.813,343.449 671.137,341.647 671.137,339.381C671.137,337.115 671.86,335.272 673.307,333.852C674.809,332.378 676.816,331.641 679.327,331.641ZM677.628,339.668C677.628,340.568 677.744,341.319 677.976,341.92C678.276,342.684 678.706,343.067 679.266,343.067C679.771,343.067 680.181,342.65 680.495,341.818C680.768,341.094 680.904,340.275 680.904,339.36C680.904,338.391 680.781,337.572 680.535,336.903C680.222,336.057 679.757,335.634 679.143,335.634C678.529,335.634 678.106,336.091 677.874,337.006C677.71,337.634 677.628,338.521 677.628,339.668Z" style="fill:url(#_Linear7);fill-rule:nonzero;"/>
                    <path d="M694.562,346.568L694.562,331.825L705.987,331.825L705.987,335.654L700.745,335.654L700.745,337.395L705.987,337.415L705.987,341.388L700.745,341.388L700.745,346.568L694.562,346.568Z" style="fill:url(#_Linear8);fill-rule:nonzero;"/>
                    <path d="M706.806,341.674L706.806,331.825L712.99,331.825L712.99,340.671L713.011,340.978L713.031,341.142L713.052,341.49C713.052,341.954 713.215,342.302 713.543,342.534C713.639,342.602 713.741,342.657 713.85,342.698C713.959,342.739 714.069,342.759 714.178,342.759C714.396,342.759 714.615,342.684 714.833,342.534C715.161,342.302 715.325,341.954 715.325,341.49L715.365,341.101L715.365,340.978L715.386,340.671L715.386,331.825L721.57,331.825L721.57,341.674C721.57,343.367 721.085,344.636 720.116,345.483C719.065,346.397 717.379,346.855 715.058,346.855L713.318,346.855C711.011,346.855 709.325,346.397 708.26,345.483C707.291,344.65 706.806,343.381 706.806,341.674Z" style="fill:url(#_Linear9);fill-rule:nonzero;"/>
                    <path d="M737.541,337.988L731.91,337.988L731.91,337.661C731.91,337.156 731.784,336.763 731.531,336.483C731.279,336.204 730.982,336.064 730.641,336.064C730.245,336.064 729.931,336.265 729.699,336.668C729.467,337.07 729.296,337.784 729.187,338.808L729.146,339.77C729.146,340.029 729.153,340.261 729.166,340.466C729.18,340.671 729.224,340.954 729.299,341.316C729.375,341.678 729.47,341.978 729.586,342.217C729.702,342.456 729.842,342.626 730.006,342.729C730.17,342.831 730.354,342.882 730.559,342.882C730.777,342.882 730.992,342.821 731.204,342.698C731.415,342.575 731.566,342.415 731.654,342.217C731.743,342.019 731.811,341.797 731.859,341.551C731.907,341.306 731.931,340.93 731.931,340.425L731.91,340.179L737.562,340.179L737.562,340.855C737.562,341.033 737.555,341.169 737.541,341.265C737.364,343.026 736.824,344.343 735.924,345.217C735.023,346.09 733.637,346.65 731.767,346.896C731.303,346.95 730.982,346.981 730.804,346.988C730.627,346.995 730.484,346.998 730.374,346.998C730.061,346.998 729.811,346.984 729.627,346.957C729.443,346.93 729.303,346.916 729.207,346.916C727.201,346.629 725.641,345.855 724.529,344.592C723.416,343.329 722.86,341.661 722.86,339.586C722.86,338.753 722.948,337.9 723.126,337.026C723.454,335.374 724.153,334.064 725.225,333.095C726.296,332.125 727.658,331.566 729.31,331.416C729.719,331.375 730.115,331.354 730.497,331.354C732.49,331.354 734.077,331.832 735.258,332.788C736.439,333.743 737.173,335.095 737.459,336.842C737.487,337.006 737.507,337.19 737.521,337.395C737.534,337.599 737.541,337.797 737.541,337.988Z" style="fill:url(#_Linear10);fill-rule:nonzero;"/>
                    <path d="M738.831,346.568L738.831,331.825L744.872,331.825L744.872,346.568L738.831,346.568ZM744.872,338.746L747.472,331.825L753.84,331.825L750.359,338.664L754.373,346.568L747.923,346.568L744.872,338.746Z" style="fill:url(#_Linear11);fill-rule:nonzero;"/>
                    <rect x="754.68" y="331.825" width="6.184" height="14.743" style="fill:url(#_Linear12);fill-rule:nonzero;"/>
                    <path d="M762.502,346.568L762.502,331.825L769.586,331.825L772.904,340.343L772.76,331.825L777.388,331.825L777.388,346.568L770.426,346.568L767.047,338.234L767.191,346.568L762.502,346.568Z" style="fill:url(#_Linear13);fill-rule:nonzero;"/>
                    <path d="M784.145,335.654L784.145,331.825L797.414,331.825L797.414,335.654L793.871,335.654L793.871,346.568L787.687,346.568L787.687,335.654L784.145,335.654Z" style="fill:url(#_Linear14);fill-rule:nonzero;"/>
                    <rect x="798.233" y="331.825" width="6.184" height="14.743" style="fill:url(#_Linear15);fill-rule:nonzero;"/>
                    <path d="M806.054,346.568L806.054,331.825L814.183,331.825L815.801,340.118L817.419,331.825L825.568,331.825L825.568,346.568L820.736,346.568L820.879,337.415L820.593,337.415L818.32,346.568L813.283,346.568L811.03,337.415L810.743,337.415L810.887,346.568L806.054,346.568Z" style="fill:url(#_Linear16);fill-rule:nonzero;"/>
                    <path d="M827.206,346.568L827.206,331.825L838.693,331.825L838.693,335.654L833.103,335.654L833.103,337.149L838.468,337.149L838.468,341.121L833.103,341.121L833.103,342.739L838.734,342.739L838.734,346.568L827.206,346.568Z" style="fill:url(#_Linear17);fill-rule:nonzero;"/>
                </g>
                <g transform="matrix(3.35519,-1.8633,1.54217,2.55511,-1581.86,1667.96)">
                    <path d="M655.022,346.568L655.022,331.825L662.107,331.825L665.424,340.343L665.281,331.825L669.908,331.825L669.908,346.568L662.946,346.568L659.568,338.234L659.711,346.568L655.022,346.568Z" style="fill:url(#_Linear18);fill-rule:nonzero;"/>
                    <path d="M679.327,331.641C681.798,331.641 683.764,332.385 685.225,333.873C686.617,335.292 687.313,337.115 687.313,339.34C687.313,341.592 686.658,343.394 685.347,344.746C683.928,346.206 681.921,346.937 679.327,346.937C676.665,346.937 674.611,346.22 673.164,344.787C671.813,343.449 671.137,341.647 671.137,339.381C671.137,337.115 671.86,335.272 673.307,333.852C674.809,332.378 676.816,331.641 679.327,331.641ZM677.628,339.668C677.628,340.568 677.744,341.319 677.976,341.92C678.276,342.684 678.706,343.067 679.266,343.067C679.771,343.067 680.181,342.65 680.495,341.818C680.768,341.094 680.904,340.275 680.904,339.36C680.904,338.391 680.781,337.572 680.535,336.903C680.222,336.057 679.757,335.634 679.143,335.634C678.529,335.634 678.106,336.091 677.874,337.006C677.71,337.634 677.628,338.521 677.628,339.668Z" style="fill:url(#_Linear19);fill-rule:nonzero;"/>
                    <path d="M694.562,346.568L694.562,331.825L705.987,331.825L705.987,335.654L700.745,335.654L700.745,337.395L705.987,337.415L705.987,341.388L700.745,341.388L700.745,346.568L694.562,346.568Z" style="fill:url(#_Linear20);fill-rule:nonzero;"/>
                    <path d="M706.806,341.674L706.806,331.825L712.99,331.825L712.99,340.671L713.011,340.978L713.031,341.142L713.052,341.49C713.052,341.954 713.215,342.302 713.543,342.534C713.639,342.602 713.741,342.657 713.85,342.698C713.959,342.739 714.069,342.759 714.178,342.759C714.396,342.759 714.615,342.684 714.833,342.534C715.161,342.302 715.325,341.954 715.325,341.49L715.365,341.101L715.365,340.978L715.386,340.671L715.386,331.825L721.57,331.825L721.57,341.674C721.57,343.367 721.085,344.636 720.116,345.483C719.065,346.397 717.379,346.855 715.058,346.855L713.318,346.855C711.011,346.855 709.325,346.397 708.26,345.483C707.291,344.65 706.806,343.381 706.806,341.674Z" style="fill:url(#_Linear21);fill-rule:nonzero;"/>
                    <path d="M737.541,337.988L731.91,337.988L731.91,337.661C731.91,337.156 731.784,336.763 731.531,336.483C731.279,336.204 730.982,336.064 730.641,336.064C730.245,336.064 729.931,336.265 729.699,336.668C729.467,337.07 729.296,337.784 729.187,338.808L729.146,339.77C729.146,340.029 729.153,340.261 729.166,340.466C729.18,340.671 729.224,340.954 729.299,341.316C729.375,341.678 729.47,341.978 729.586,342.217C729.702,342.456 729.842,342.626 730.006,342.729C730.17,342.831 730.354,342.882 730.559,342.882C730.777,342.882 730.992,342.821 731.204,342.698C731.415,342.575 731.566,342.415 731.654,342.217C731.743,342.019 731.811,341.797 731.859,341.551C731.907,341.306 731.931,340.93 731.931,340.425L731.91,340.179L737.562,340.179L737.562,340.855C737.562,341.033 737.555,341.169 737.541,341.265C737.364,343.026 736.824,344.343 735.924,345.217C735.023,346.09 733.637,346.65 731.767,346.896C731.303,346.95 730.982,346.981 730.804,346.988C730.627,346.995 730.484,346.998 730.374,346.998C730.061,346.998 729.811,346.984 729.627,346.957C729.443,346.93 729.303,346.916 729.207,346.916C727.201,346.629 725.641,345.855 724.529,344.592C723.416,343.329 722.86,341.661 722.86,339.586C722.86,338.753 722.948,337.9 723.126,337.026C723.454,335.374 724.153,334.064 725.225,333.095C726.296,332.125 727.658,331.566 729.31,331.416C729.719,331.375 730.115,331.354 730.497,331.354C732.49,331.354 734.077,331.832 735.258,332.788C736.439,333.743 737.173,335.095 737.459,336.842C737.487,337.006 737.507,337.19 737.521,337.395C737.534,337.599 737.541,337.797 737.541,337.988Z" style="fill:url(#_Linear22);fill-rule:nonzero;"/>
                    <path d="M738.831,346.568L738.831,331.825L744.872,331.825L744.872,346.568L738.831,346.568ZM744.872,338.746L747.472,331.825L753.84,331.825L750.359,338.664L754.373,346.568L747.923,346.568L744.872,338.746Z" style="fill:url(#_Linear23);fill-rule:nonzero;"/>
                    <rect x="754.68" y="331.825" width="6.184" height="14.743" style="fill:url(#_Linear24);fill-rule:nonzero;"/>
                    <path d="M762.502,346.568L762.502,331.825L769.586,331.825L772.904,340.343L772.76,331.825L777.388,331.825L777.388,346.568L770.426,346.568L767.047,338.234L767.191,346.568L762.502,346.568Z" style="fill:url(#_Linear25);fill-rule:nonzero;"/>
                    <path d="M784.145,335.654L784.145,331.825L797.414,331.825L797.414,335.654L793.871,335.654L793.871,346.568L787.687,346.568L787.687,335.654L784.145,335.654Z" style="fill:url(#_Linear26);fill-rule:nonzero;"/>
                    <rect x="798.233" y="331.825" width="6.184" height="14.743" style="fill:url(#_Linear27);fill-rule:nonzero;"/>
                    <path d="M806.054,346.568L806.054,331.825L814.183,331.825L815.801,340.118L817.419,331.825L825.568,331.825L825.568,346.568L820.736,346.568L820.879,337.415L820.593,337.415L818.32,346.568L813.283,346.568L811.03,337.415L810.743,337.415L810.887,346.568L806.054,346.568Z" style="fill:url(#_Linear28);fill-rule:nonzero;"/>
                    <path d="M827.206,346.568L827.206,331.825L838.693,331.825L838.693,335.654L833.103,335.654L833.103,337.149L838.468,337.149L838.468,341.121L833.103,341.121L833.103,342.739L838.734,342.739L838.734,346.568L827.206,346.568Z" style="fill:url(#_Linear29);fill-rule:nonzero;"/>
                </g>
                <g transform="matrix(3.35241,1.86263,-1.54162,2.55299,-531.384,-2199.62)">
                    <path d="M655.023,346.578L655.023,331.825L662.113,331.825L665.432,340.349L665.289,331.825L669.919,331.825L669.919,346.578L662.953,346.578L659.572,338.239L659.715,346.578L655.023,346.578Z" style="fill:url(#_Linear30);fill-rule:nonzero;"/>
                    <path d="M679.345,331.641C681.818,331.641 683.785,332.385 685.247,333.874C686.64,335.295 687.337,337.119 687.337,339.345C687.337,341.599 686.681,343.402 685.369,344.755C683.949,346.216 681.941,346.947 679.345,346.947C676.681,346.947 674.626,346.23 673.178,344.796C671.825,343.457 671.149,341.654 671.149,339.386C671.149,337.119 671.873,335.274 673.321,333.854C674.824,332.378 676.832,331.641 679.345,331.641ZM677.644,339.673C677.644,340.575 677.761,341.326 677.993,341.927C678.293,342.692 678.724,343.075 679.284,343.075C679.789,343.075 680.199,342.658 680.513,341.825C680.786,341.101 680.923,340.281 680.923,339.366C680.923,338.396 680.8,337.576 680.554,336.907C680.24,336.06 679.776,335.636 679.161,335.636C678.546,335.636 678.123,336.094 677.89,337.009C677.726,337.638 677.644,338.526 677.644,339.673Z" style="fill:url(#_Linear31);fill-rule:nonzero;"/>
                    <path d="M694.59,346.578L694.59,331.825L706.024,331.825L706.024,335.657L700.778,335.657L700.778,337.399L706.024,337.419L706.024,341.394L700.778,341.394L700.778,346.578L694.59,346.578Z" style="fill:url(#_Linear32);fill-rule:nonzero;"/>
                    <path d="M706.844,341.681L706.844,331.825L713.032,331.825L713.032,340.677L713.052,340.985L713.073,341.148L713.093,341.497C713.093,341.961 713.257,342.31 713.585,342.542C713.681,342.61 713.783,342.665 713.893,342.706C714.002,342.747 714.111,342.767 714.22,342.767C714.439,342.767 714.658,342.692 714.876,342.542C715.204,342.31 715.368,341.961 715.368,341.497L715.409,341.107L715.409,340.985L715.429,340.677L715.429,331.825L721.618,331.825L721.618,341.681C721.618,343.375 721.133,344.646 720.163,345.492C719.111,346.408 717.424,346.865 715.101,346.865L713.36,346.865C711.051,346.865 709.364,346.408 708.299,345.492C707.329,344.659 706.844,343.389 706.844,341.681Z" style="fill:url(#_Linear33);fill-rule:nonzero;"/>
                    <path d="M737.6,337.993L731.965,337.993L731.965,337.665C731.965,337.16 731.839,336.767 731.586,336.487C731.334,336.207 731.036,336.067 730.695,336.067C730.299,336.067 729.985,336.268 729.752,336.671C729.52,337.074 729.349,337.788 729.24,338.812L729.199,339.776C729.199,340.035 729.206,340.267 729.22,340.472C729.233,340.677 729.278,340.961 729.353,341.323C729.428,341.685 729.524,341.985 729.64,342.224C729.756,342.463 729.896,342.634 730.06,342.736C730.224,342.839 730.408,342.89 730.613,342.89C730.832,342.89 731.047,342.829 731.258,342.706C731.47,342.583 731.62,342.422 731.709,342.224C731.798,342.026 731.866,341.804 731.914,341.558C731.962,341.312 731.986,340.937 731.986,340.431L731.965,340.185L737.621,340.185L737.621,340.862C737.621,341.039 737.614,341.176 737.6,341.271C737.423,343.034 736.883,344.352 735.982,345.226C735.08,346.1 733.693,346.66 731.822,346.906C731.357,346.961 731.036,346.992 730.859,346.999C730.681,347.005 730.538,347.009 730.429,347.009C730.114,347.009 729.865,346.995 729.681,346.968C729.496,346.94 729.356,346.927 729.261,346.927C727.252,346.64 725.692,345.865 724.578,344.601C723.465,343.338 722.908,341.668 722.908,339.591C722.908,338.758 722.997,337.904 723.175,337.03C723.503,335.377 724.203,334.065 725.275,333.096C726.347,332.126 727.71,331.566 729.363,331.415C729.773,331.374 730.169,331.354 730.551,331.354C732.546,331.354 734.134,331.832 735.316,332.788C736.497,333.744 737.231,335.097 737.518,336.845C737.546,337.009 737.566,337.194 737.58,337.399C737.593,337.604 737.6,337.802 737.6,337.993Z" style="fill:url(#_Linear34);fill-rule:nonzero;"/>
                    <path d="M738.891,346.578L738.891,331.825L744.936,331.825L744.936,346.578L738.891,346.578ZM744.936,338.751L747.538,331.825L753.911,331.825L750.427,338.669L754.444,346.578L747.989,346.578L744.936,338.751Z" style="fill:url(#_Linear35);fill-rule:nonzero;"/>
                    <rect x="754.751" y="331.825" width="6.188" height="14.753" style="fill:url(#_Linear36);fill-rule:nonzero;"/>
                    <path d="M762.578,346.578L762.578,331.825L769.668,331.825L772.988,340.349L772.844,331.825L777.475,331.825L777.475,346.578L770.508,346.578L767.127,338.239L767.271,346.578L762.578,346.578Z" style="fill:url(#_Linear37);fill-rule:nonzero;"/>
                    <path d="M784.237,335.657L784.237,331.825L797.515,331.825L797.515,335.657L793.97,335.657L793.97,346.578L787.782,346.578L787.782,335.657L784.237,335.657Z" style="fill:url(#_Linear38);fill-rule:nonzero;"/>
                    <rect x="798.335" y="331.825" width="6.188" height="14.753" style="fill:url(#_Linear39);fill-rule:nonzero;"/>
                    <path d="M806.162,346.578L806.162,331.825L814.297,331.825L815.916,340.124L817.535,331.825L825.69,331.825L825.69,346.578L820.854,346.578L820.997,337.419L820.711,337.419L818.436,346.578L813.395,346.578L811.141,337.419L810.855,337.419L810.998,346.578L806.162,346.578Z" style="fill:url(#_Linear40);fill-rule:nonzero;"/>
                    <path d="M827.329,346.578L827.329,331.825L838.824,331.825L838.824,335.657L833.23,335.657L833.23,337.153L838.599,337.153L838.599,341.128L833.23,341.128L833.23,342.747L838.865,342.747L838.865,346.578L827.329,346.578Z" style="fill:url(#_Linear41);fill-rule:nonzero;"/>
                </g>
                <g transform="matrix(3.35241,1.86263,-1.54162,2.55299,-1188.13,-1114.01)">
                    <path d="M655.023,346.578L655.023,331.825L662.113,331.825L665.432,340.349L665.289,331.825L669.919,331.825L669.919,346.578L662.953,346.578L659.572,338.239L659.715,346.578L655.023,346.578Z" style="fill:url(#_Linear42);fill-rule:nonzero;"/>
                    <path d="M679.345,331.641C681.818,331.641 683.785,332.385 685.247,333.874C686.64,335.295 687.337,337.119 687.337,339.345C687.337,341.599 686.681,343.402 685.369,344.755C683.949,346.216 681.941,346.947 679.345,346.947C676.681,346.947 674.626,346.23 673.178,344.796C671.825,343.457 671.149,341.654 671.149,339.386C671.149,337.119 671.873,335.274 673.321,333.854C674.824,332.378 676.832,331.641 679.345,331.641ZM677.644,339.673C677.644,340.575 677.761,341.326 677.993,341.927C678.293,342.692 678.724,343.075 679.284,343.075C679.789,343.075 680.199,342.658 680.513,341.825C680.786,341.101 680.923,340.281 680.923,339.366C680.923,338.396 680.8,337.576 680.554,336.907C680.24,336.06 679.776,335.636 679.161,335.636C678.546,335.636 678.123,336.094 677.89,337.009C677.726,337.638 677.644,338.526 677.644,339.673Z" style="fill:url(#_Linear43);fill-rule:nonzero;"/>
                    <path d="M694.59,346.578L694.59,331.825L706.024,331.825L706.024,335.657L700.778,335.657L700.778,337.399L706.024,337.419L706.024,341.394L700.778,341.394L700.778,346.578L694.59,346.578Z" style="fill:url(#_Linear44);fill-rule:nonzero;"/>
                    <path d="M706.844,341.681L706.844,331.825L713.032,331.825L713.032,340.677L713.052,340.985L713.073,341.148L713.093,341.497C713.093,341.961 713.257,342.31 713.585,342.542C713.681,342.61 713.783,342.665 713.893,342.706C714.002,342.747 714.111,342.767 714.22,342.767C714.439,342.767 714.658,342.692 714.876,342.542C715.204,342.31 715.368,341.961 715.368,341.497L715.409,341.107L715.409,340.985L715.429,340.677L715.429,331.825L721.618,331.825L721.618,341.681C721.618,343.375 721.133,344.646 720.163,345.492C719.111,346.408 717.424,346.865 715.101,346.865L713.36,346.865C711.051,346.865 709.364,346.408 708.299,345.492C707.329,344.659 706.844,343.389 706.844,341.681Z" style="fill:url(#_Linear45);fill-rule:nonzero;"/>
                    <path d="M737.6,337.993L731.965,337.993L731.965,337.665C731.965,337.16 731.839,336.767 731.586,336.487C731.334,336.207 731.036,336.067 730.695,336.067C730.299,336.067 729.985,336.268 729.752,336.671C729.52,337.074 729.349,337.788 729.24,338.812L729.199,339.776C729.199,340.035 729.206,340.267 729.22,340.472C729.233,340.677 729.278,340.961 729.353,341.323C729.428,341.685 729.524,341.985 729.64,342.224C729.756,342.463 729.896,342.634 730.06,342.736C730.224,342.839 730.408,342.89 730.613,342.89C730.832,342.89 731.047,342.829 731.258,342.706C731.47,342.583 731.62,342.422 731.709,342.224C731.798,342.026 731.866,341.804 731.914,341.558C731.962,341.312 731.986,340.937 731.986,340.431L731.965,340.185L737.621,340.185L737.621,340.862C737.621,341.039 737.614,341.176 737.6,341.271C737.423,343.034 736.883,344.352 735.982,345.226C735.08,346.1 733.693,346.66 731.822,346.906C731.357,346.961 731.036,346.992 730.859,346.999C730.681,347.005 730.538,347.009 730.429,347.009C730.114,347.009 729.865,346.995 729.681,346.968C729.496,346.94 729.356,346.927 729.261,346.927C727.252,346.64 725.692,345.865 724.578,344.601C723.465,343.338 722.908,341.668 722.908,339.591C722.908,338.758 722.997,337.904 723.175,337.03C723.503,335.377 724.203,334.065 725.275,333.096C726.347,332.126 727.71,331.566 729.363,331.415C729.773,331.374 730.169,331.354 730.551,331.354C732.546,331.354 734.134,331.832 735.316,332.788C736.497,333.744 737.231,335.097 737.518,336.845C737.546,337.009 737.566,337.194 737.58,337.399C737.593,337.604 737.6,337.802 737.6,337.993Z" style="fill:url(#_Linear46);fill-rule:nonzero;"/>
                    <path d="M738.891,346.578L738.891,331.825L744.936,331.825L744.936,346.578L738.891,346.578ZM744.936,338.751L747.538,331.825L753.911,331.825L750.427,338.669L754.444,346.578L747.989,346.578L744.936,338.751Z" style="fill:url(#_Linear47);fill-rule:nonzero;"/>
                    <rect x="754.751" y="331.825" width="6.188" height="14.753" style="fill:url(#_Linear48);fill-rule:nonzero;"/>
                    <path d="M762.578,346.578L762.578,331.825L769.668,331.825L772.988,340.349L772.844,331.825L777.475,331.825L777.475,346.578L770.508,346.578L767.127,338.239L767.271,346.578L762.578,346.578Z" style="fill:url(#_Linear49);fill-rule:nonzero;"/>
                    <path d="M784.237,335.657L784.237,331.825L797.515,331.825L797.515,335.657L793.97,335.657L793.97,346.578L787.782,346.578L787.782,335.657L784.237,335.657Z" style="fill:url(#_Linear50);fill-rule:nonzero;"/>
                    <rect x="798.335" y="331.825" width="6.188" height="14.753" style="fill:url(#_Linear51);fill-rule:nonzero;"/>
                    <path d="M806.162,346.578L806.162,331.825L814.297,331.825L815.916,340.124L817.535,331.825L825.69,331.825L825.69,346.578L820.854,346.578L820.997,337.419L820.711,337.419L818.436,346.578L813.395,346.578L811.141,337.419L810.855,337.419L810.998,346.578L806.162,346.578Z" style="fill:url(#_Linear52);fill-rule:nonzero;"/>
                    <path d="M827.329,346.578L827.329,331.825L838.824,331.825L838.824,335.657L833.23,335.657L833.23,337.153L838.599,337.153L838.599,341.128L833.23,341.128L833.23,342.747L838.865,342.747L838.865,346.578L827.329,346.578Z" style="fill:url(#_Linear53);fill-rule:nonzero;"/>
                </g>
                <g transform="matrix(-0.00250887,3.72523,-3.08321,-0.0019106,2822.63,-2179.93)">
                    <path d="M655.021,346.543L655.021,331.825L662.093,331.825L665.405,340.329L665.262,331.825L669.881,331.825L669.881,346.543L662.931,346.543L659.559,338.223L659.702,346.543L655.021,346.543Z" style="fill:url(#_Linear54);fill-rule:nonzero;"/>
                    <path d="M679.284,331.641C681.751,331.641 683.713,332.384 685.171,333.869C686.561,335.287 687.256,337.106 687.256,339.327C687.256,341.576 686.602,343.374 685.294,344.724C683.877,346.182 681.874,346.911 679.284,346.911C676.627,346.911 674.576,346.195 673.132,344.764C671.783,343.429 671.108,341.63 671.108,339.368C671.108,337.106 671.83,335.266 673.275,333.849C674.774,332.377 676.777,331.641 679.284,331.641ZM677.588,339.654C677.588,340.554 677.704,341.303 677.935,341.903C678.235,342.666 678.664,343.047 679.223,343.047C679.727,343.047 680.136,342.632 680.45,341.8C680.722,341.078 680.858,340.261 680.858,339.348C680.858,338.38 680.736,337.562 680.49,336.895C680.177,336.05 679.714,335.627 679.1,335.627C678.487,335.627 678.065,336.084 677.833,336.997C677.67,337.624 677.588,338.509 677.588,339.654Z" style="fill:url(#_Linear55);fill-rule:nonzero;"/>
                    <path d="M694.493,346.543L694.493,331.825L705.899,331.825L705.899,335.648L700.666,335.648L700.666,337.385L705.899,337.406L705.899,341.371L700.666,341.371L700.666,346.543L694.493,346.543Z" style="fill:url(#_Linear56);fill-rule:nonzero;"/>
                    <path d="M706.716,341.657L706.716,331.825L712.89,331.825L712.89,340.656L712.91,340.962L712.931,341.126L712.951,341.473C712.951,341.937 713.115,342.284 713.442,342.516C713.537,342.584 713.639,342.639 713.748,342.679C713.857,342.72 713.966,342.741 714.075,342.741C714.293,342.741 714.511,342.666 714.729,342.516C715.056,342.284 715.22,341.937 715.22,341.473L715.261,341.085L715.261,340.962L715.281,340.656L715.281,331.825L721.455,331.825L721.455,341.657C721.455,343.347 720.971,344.615 720.003,345.459C718.954,346.372 717.271,346.829 714.954,346.829L713.217,346.829C710.914,346.829 709.231,346.372 708.168,345.459C707.2,344.628 706.716,343.361 706.716,341.657Z" style="fill:url(#_Linear57);fill-rule:nonzero;"/>
                    <path d="M737.399,337.978L731.777,337.978L731.777,337.651C731.777,337.147 731.651,336.755 731.399,336.476C731.147,336.196 730.851,336.056 730.51,336.056C730.115,336.056 729.801,336.257 729.57,336.659C729.338,337.062 729.168,337.774 729.059,338.796L729.018,339.756C729.018,340.015 729.025,340.247 729.038,340.451C729.052,340.656 729.096,340.939 729.171,341.3C729.246,341.661 729.341,341.961 729.457,342.199C729.573,342.438 729.713,342.608 729.876,342.71C730.04,342.812 730.224,342.863 730.428,342.863C730.646,342.863 730.861,342.802 731.072,342.679C731.283,342.557 731.433,342.397 731.522,342.199C731.61,342.001 731.678,341.78 731.726,341.535C731.774,341.289 731.798,340.915 731.798,340.41L731.777,340.165L737.419,340.165L737.419,340.84C737.419,341.017 737.412,341.153 737.399,341.249C737.221,343.006 736.683,344.322 735.784,345.194C734.884,346.066 733.501,346.625 731.634,346.87C731.171,346.924 730.851,346.955 730.673,346.962C730.496,346.969 730.353,346.972 730.244,346.972C729.931,346.972 729.682,346.958 729.498,346.931C729.314,346.904 729.174,346.89 729.079,346.89C727.076,346.604 725.519,345.831 724.408,344.57C723.298,343.31 722.742,341.644 722.742,339.572C722.742,338.741 722.831,337.889 723.008,337.017C723.335,335.368 724.033,334.06 725.103,333.093C726.173,332.125 727.532,331.566 729.181,331.416C729.59,331.375 729.985,331.355 730.367,331.355C732.356,331.355 733.941,331.832 735.119,332.786C736.298,333.74 737.031,335.089 737.317,336.833C737.344,336.997 737.365,337.181 737.378,337.385C737.392,337.59 737.399,337.787 737.399,337.978Z" style="fill:url(#_Linear58);fill-rule:nonzero;"/>
                    <path d="M738.686,346.543L738.686,331.825L744.717,331.825L744.717,346.543L738.686,346.543ZM744.717,338.734L747.313,331.825L753.67,331.825L750.195,338.653L754.201,346.543L747.762,346.543L744.717,338.734Z" style="fill:url(#_Linear59);fill-rule:nonzero;"/>
                    <rect x="754.508" y="331.825" width="6.173" height="14.718" style="fill:url(#_Linear60);fill-rule:nonzero;"/>
                    <path d="M762.316,346.543L762.316,331.825L769.389,331.825L772.7,340.329L772.557,331.825L777.177,331.825L777.177,346.543L770.227,346.543L766.854,338.223L766.997,346.543L762.316,346.543Z" style="fill:url(#_Linear61);fill-rule:nonzero;"/>
                    <path d="M783.923,335.648L783.923,331.825L797.169,331.825L797.169,335.648L793.632,335.648L793.632,346.543L787.459,346.543L787.459,335.648L783.923,335.648Z" style="fill:url(#_Linear62);fill-rule:nonzero;"/>
                    <rect x="797.986" y="331.825" width="6.173" height="14.718" style="fill:url(#_Linear63);fill-rule:nonzero;"/>
                    <path d="M805.795,346.543L805.795,331.825L813.91,331.825L815.525,340.104L817.14,331.825L825.275,331.825L825.275,346.543L820.451,346.543L820.594,337.406L820.308,337.406L818.039,346.543L813.01,346.543L810.762,337.406L810.476,337.406L810.619,346.543L805.795,346.543Z" style="fill:url(#_Linear64);fill-rule:nonzero;"/>
                    <path d="M826.91,346.543L826.91,331.825L838.378,331.825L838.378,335.648L832.797,335.648L832.797,337.14L838.153,337.14L838.153,341.105L832.797,341.105L832.797,342.72L838.419,342.72L838.419,346.543L826.91,346.543Z" style="fill:url(#_Linear65);fill-rule:nonzero;"/>
                </g>
                <g transform="matrix(-9.68025e-05,-3.72523,3.08321,-7.37189e-05,-578.77,3382.85)">
                    <path d="M655.021,346.543L655.021,331.825L662.093,331.825L665.405,340.329L665.262,331.825L669.881,331.825L669.881,346.543L662.931,346.543L659.559,338.223L659.702,346.543L655.021,346.543Z" style="fill:url(#_Linear66);fill-rule:nonzero;"/>
                    <path d="M679.284,331.641C681.751,331.641 683.713,332.384 685.171,333.869C686.561,335.287 687.256,337.106 687.256,339.327C687.256,341.576 686.602,343.374 685.294,344.724C683.877,346.182 681.874,346.911 679.284,346.911C676.627,346.911 674.576,346.195 673.132,344.764C671.783,343.429 671.108,341.63 671.108,339.368C671.108,337.106 671.83,335.266 673.275,333.849C674.774,332.377 676.777,331.641 679.284,331.641ZM677.588,339.654C677.588,340.554 677.704,341.303 677.935,341.903C678.235,342.666 678.664,343.047 679.223,343.047C679.727,343.047 680.136,342.632 680.45,341.8C680.722,341.078 680.858,340.261 680.858,339.348C680.858,338.38 680.736,337.562 680.49,336.895C680.177,336.05 679.714,335.627 679.1,335.627C678.487,335.627 678.065,336.084 677.833,336.997C677.67,337.624 677.588,338.509 677.588,339.654Z" style="fill:url(#_Linear67);fill-rule:nonzero;"/>
                    <path d="M694.493,346.543L694.493,331.825L705.899,331.825L705.899,335.648L700.666,335.648L700.666,337.385L705.899,337.406L705.899,341.371L700.666,341.371L700.666,346.543L694.493,346.543Z" style="fill:url(#_Linear68);fill-rule:nonzero;"/>
                    <path d="M706.716,341.657L706.716,331.825L712.89,331.825L712.89,340.656L712.91,340.962L712.931,341.126L712.951,341.473C712.951,341.937 713.115,342.284 713.442,342.516C713.537,342.584 713.639,342.639 713.748,342.679C713.857,342.72 713.966,342.741 714.075,342.741C714.293,342.741 714.511,342.666 714.729,342.516C715.056,342.284 715.22,341.937 715.22,341.473L715.261,341.085L715.261,340.962L715.281,340.656L715.281,331.825L721.455,331.825L721.455,341.657C721.455,343.347 720.971,344.615 720.003,345.459C718.954,346.372 717.271,346.829 714.954,346.829L713.217,346.829C710.914,346.829 709.231,346.372 708.168,345.459C707.2,344.628 706.716,343.361 706.716,341.657Z" style="fill:url(#_Linear69);fill-rule:nonzero;"/>
                    <path d="M737.399,337.978L731.777,337.978L731.777,337.651C731.777,337.147 731.651,336.755 731.399,336.476C731.147,336.196 730.851,336.056 730.51,336.056C730.115,336.056 729.801,336.257 729.57,336.659C729.338,337.062 729.168,337.774 729.059,338.796L729.018,339.756C729.018,340.015 729.025,340.247 729.038,340.451C729.052,340.656 729.096,340.939 729.171,341.3C729.246,341.661 729.341,341.961 729.457,342.199C729.573,342.438 729.713,342.608 729.876,342.71C730.04,342.812 730.224,342.863 730.428,342.863C730.646,342.863 730.861,342.802 731.072,342.679C731.283,342.557 731.433,342.397 731.522,342.199C731.61,342.001 731.678,341.78 731.726,341.535C731.774,341.289 731.798,340.915 731.798,340.41L731.777,340.165L737.419,340.165L737.419,340.84C737.419,341.017 737.412,341.153 737.399,341.249C737.221,343.006 736.683,344.322 735.784,345.194C734.884,346.066 733.501,346.625 731.634,346.87C731.171,346.924 730.851,346.955 730.673,346.962C730.496,346.969 730.353,346.972 730.244,346.972C729.931,346.972 729.682,346.958 729.498,346.931C729.314,346.904 729.174,346.89 729.079,346.89C727.076,346.604 725.519,345.831 724.408,344.57C723.298,343.31 722.742,341.644 722.742,339.572C722.742,338.741 722.831,337.889 723.008,337.017C723.335,335.368 724.033,334.06 725.103,333.093C726.173,332.125 727.532,331.566 729.181,331.416C729.59,331.375 729.985,331.355 730.367,331.355C732.356,331.355 733.941,331.832 735.119,332.786C736.298,333.74 737.031,335.089 737.317,336.833C737.344,336.997 737.365,337.181 737.378,337.385C737.392,337.59 737.399,337.787 737.399,337.978Z" style="fill:url(#_Linear70);fill-rule:nonzero;"/>
                    <path d="M738.686,346.543L738.686,331.825L744.717,331.825L744.717,346.543L738.686,346.543ZM744.717,338.734L747.313,331.825L753.67,331.825L750.195,338.653L754.201,346.543L747.762,346.543L744.717,338.734Z" style="fill:url(#_Linear71);fill-rule:nonzero;"/>
                    <rect x="754.508" y="331.825" width="6.173" height="14.718" style="fill:url(#_Linear72);fill-rule:nonzero;"/>
                    <path d="M762.316,346.543L762.316,331.825L769.389,331.825L772.7,340.329L772.557,331.825L777.177,331.825L777.177,346.543L770.227,346.543L766.854,338.223L766.997,346.543L762.316,346.543Z" style="fill:url(#_Linear73);fill-rule:nonzero;"/>
                    <path d="M783.923,335.648L783.923,331.825L797.169,331.825L797.169,335.648L793.632,335.648L793.632,346.543L787.459,346.543L787.459,335.648L783.923,335.648Z" style="fill:url(#_Linear74);fill-rule:nonzero;"/>
                    <rect x="797.986" y="331.825" width="6.173" height="14.718" style="fill:url(#_Linear75);fill-rule:nonzero;"/>
                    <path d="M805.795,346.543L805.795,331.825L813.91,331.825L815.525,340.104L817.14,331.825L825.275,331.825L825.275,346.543L820.451,346.543L820.594,337.406L820.308,337.406L818.039,346.543L813.01,346.543L810.762,337.406L810.476,337.406L810.619,346.543L805.795,346.543Z" style="fill:url(#_Linear76);fill-rule:nonzero;"/>
                    <path d="M826.91,346.543L826.91,331.825L838.378,331.825L838.378,335.648L832.797,335.648L832.797,337.14L838.153,337.14L838.153,341.105L832.797,341.105L832.797,342.72L838.419,342.72L838.419,346.543L826.91,346.543Z" style="fill:url(#_Linear77);fill-rule:nonzero;"/>
                </g>
            </g>
        </g>
    </g>
    <defs>
        <linearGradient id="_Linear2" x1="0" y1="0" x2="1" y2="0" gradientUnits="userSpaceOnUse" gradientTransform="matrix(519.075,0,0,600,340.446,300)"><stop offset="0" style="stop-color:rgb(0,156,217);stop-opacity:1"/><stop offset="0.46" style="stop-color:rgb(6,161,216);stop-opacity:1"/><stop offset="1" style="stop-color:rgb(20,172,213);stop-opacity:1"/></linearGradient>
        <linearGradient id="_Linear3" x1="0" y1="0" x2="1" y2="0" gradientUnits="userSpaceOnUse" gradientTransform="matrix(519.075,0,0,600,340.446,300)"><stop offset="0" style="stop-color:rgb(0,156,217);stop-opacity:1"/><stop offset="0.46" style="stop-color:rgb(6,161,216);stop-opacity:1"/><stop offset="1" style="stop-color:rgb(20,172,213);stop-opacity:1"/></linearGradient>
        <linearGradient id="_Linear4" x1="0" y1="0" x2="1" y2="0" gradientUnits="userSpaceOnUse" gradientTransform="matrix(519.075,0,0,600,340.446,300)"><stop offset="0" style="stop-color:rgb(0,156,217);stop-opacity:1"/><stop offset="0.46" style="stop-color:rgb(6,161,216);stop-opacity:1"/><stop offset="1" style="stop-color:rgb(20,172,213);stop-opacity:1"/></linearGradient>
        <linearGradient id="_Linear5" x1="0" y1="0" x2="1" y2="0" gradientUnits="userSpaceOnUse" gradientTransform="matrix(519.075,0,0,600,340.446,300)"><stop offset="0" style="stop-color:rgb(0,156,217);stop-opacity:1"/><stop offset="0.46" style="stop-color:rgb(6,161,216);stop-opacity:1"/><stop offset="1" style="stop-color:rgb(20,172,213);stop-opacity:1"/></linearGradient>
        <linearGradient id="_Linear6" x1="0" y1="0" x2="1" y2="0" gradientUnits="userSpaceOnUse" gradientTransform="matrix(103.438,0,0,92.7061,654.203,378.178)"><stop offset="0" style="stop-color:rgb(0,105,157);stop-opacity:1"/><stop offset="1" style="stop-color:rgb(0,93,134);stop-opacity:1"/></linearGradient>
        <linearGradient id="_Linear7" x1="0" y1="0" x2="1" y2="0" gradientUnits="userSpaceOnUse" gradientTransform="matrix(103.438,0,0,92.7061,654.203,378.178)"><stop offset="0" style="stop-color:rgb(0,105,157);stop-opacity:1"/><stop offset="1" style="stop-color:rgb(0,93,134);stop-opacity:1"/></linearGradient>
        <linearGradient id="_Linear8" x1="0" y1="0" x2="1" y2="0" gradientUnits="userSpaceOnUse" gradientTransform="matrix(103.438,0,0,92.7061,654.203,378.178)"><stop offset="0" style="stop-color:rgb(0,105,157);stop-opacity:1"/><stop offset="1" style="stop-color:rgb(0,93,134);stop-opacity:1"/></linearGradient>
        <linearGradient id="_Linear9" x1="0" y1="0" x2="1" y2="0" gradientUnits="userSpaceOnUse" gradientTransform="matrix(103.438,0,0,92.7061,654.203,378.178)"><stop offset="0" style="stop-color:rgb(0,105,157);stop-opacity:1"/><stop offset="1" style="stop-color:rgb(0,93,134);stop-opacity:1"/></linearGradient>
        <linearGradient id="_Linear10" x1="0" y1="0" x2="1" y2="0" gradientUnits="userSpaceOnUse" gradientTransform="matrix(103.438,0,0,92.7061,654.203,378.178)"><stop offset="0" style="stop-color:rgb(0,105,157);stop-opacity:1"/><stop offset="1" style="stop-color:rgb(0,93,134);stop-opacity:1"/></linearGradient>
        <linearGradient id="_Linear11" x1="0" y1="0" x2="1" y2="0" gradientUnits="userSpaceOnUse" gradientTransform="matrix(103.438,0,0,92.7061,654.203,378.178)"><stop offset="0" style="stop-color:rgb(0,105,157);stop-opacity:1"/><stop offset="1" style="stop-color:rgb(0,93,134);stop-opacity:1"/></linearGradient>
        <linearGradient id="_Linear12" x1="0" y1="0" x2="1" y2="0" gradientUnits="userSpaceOnUse" gradientTransform="matrix(103.438,0,0,92.7061,654.203,378.178)"><stop offset="0" style="stop-color:rgb(0,105,157);stop-opacity:1"/><stop offset="1" style="stop-color:rgb(0,93,134);stop-opacity:1"/></linearGradient>
        <linearGradient id="_Linear13" x1="0" y1="0" x2="1" y2="0" gradientUnits="userSpaceOnUse" gradientTransform="matrix(103.438,0,0,92.7061,654.203,378.178)"><stop offset="0" style="stop-color:rgb(0,105,157);stop-opacity:1"/><stop offset="1" style="stop-color:rgb(0,93,134);stop-opacity:1"/></linearGradient>
        <linearGradient id="_Linear14" x1="0" y1="0" x2="1" y2="0" gradientUnits="userSpaceOnUse" gradientTransform="matrix(103.438,0,0,92.7061,654.203,378.178)"><stop offset="0" style="stop-color:rgb(0,105,157);stop-opacity:1"/><stop offset="1" style="stop-color:rgb(0,93,134);stop-opacity:1"/></linearGradient>
        <linearGradient id="_Linear15" x1="0" y1="0" x2="1" y2="0" gradientUnits="userSpaceOnUse" gradientTransform="matrix(103.438,0,0,92.7061,654.203,378.178)"><stop offset="0" style="stop-color:rgb(0,105,157);stop-opacity:1"/><stop offset="1" style="stop-color:rgb(0,93,134);stop-opacity:1"/></linearGradient>
        <linearGradient id="_Linear16" x1="0" y1="0" x2="1" y2="0" gradientUnits="userSpaceOnUse" gradientTransform="matrix(103.438,0,0,92.7061,654.203,378.178)"><stop offset="0" style="stop-color:rgb(0,105,157);stop-opacity:1"/><stop offset="1" style="stop-color:rgb(0,93,134);stop-opacity:1"/></linearGradient>
        <linearGradient id="_Linear17" x1="0" y1="0" x2="1" y2="0" gradientUnits="userSpaceOnUse" gradientTransform="matrix(103.438,0,0,92.7061,654.203,378.178)"><stop offset="0" style="stop-color:rgb(0,105,157);stop-opacity:1"/><stop offset="1" style="stop-color:rgb(0,93,134);stop-opacity:1"/></linearGradient>
        <linearGradient id="_Linear18" x1="0" y1="0" x2="1" y2="0" gradientUnits="userSpaceOnUse" gradientTransform="matrix(103.438,0,0,92.7061,654.203,378.178)"><stop offset="0" style="stop-color:rgb(0,105,157);stop-opacity:1"/><stop offset="1" style="stop-color:rgb(0,93,134);stop-opacity:1"/></linearGradient>
        <linearGradient id="_Linear19" x1="0" y1="0" x2="1" y2="0" gradientUnits="userSpaceOnUse" gradientTransform="matrix(103.438,0,0,92.7061,654.203,378.178)"><stop offset="0" style="stop-color:rgb(0,105,157);stop-opacity:1"/><stop offset="1" style="stop-color:rgb(0,93,134);stop-opacity:1"/></linearGradient>
        <linearGradient id="_Linear20" x1="0" y1="0" x2="1" y2="0" gradientUnits="userSpaceOnUse" gradientTransform="matrix(103.438,0,0,92.7061,654.203,378.178)"><stop offset="0" style="stop-color:rgb(0,105,157);stop-opacity:1"/><stop offset="1" style="stop-color:rgb(0,93,134);stop-opacity:1"/></linearGradient>
        <linearGradient id="_Linear21" x1="0" y1="0" x2="1" y2="0" gradientUnits="userSpaceOnUse" gradientTransform="matrix(103.438,0,0,92.7061,654.203,378.178)"><stop offset="0" style="stop-color:rgb(0,105,157);stop-opacity:1"/><stop offset="1" style="stop-color:rgb(0,93,134);stop-opacity:1"/></linearGradient>
        <linearGradient id="_Linear22" x1="0" y1="0" x2="1" y2="0" gradientUnits="userSpaceOnUse" gradientTransform="matrix(103.438,0,0,92.7061,654.203,378.178)"><stop offset="0" style="stop-color:rgb(0,105,157);stop-opacity:1"/><stop offset="1" style="stop-color:rgb(0,93,134);stop-opacity:1"/></linearGradient>
        <linearGradient id="_Linear23" x1="0" y1="0" x2="1" y2="0" gradientUnits="userSpaceOnUse" gradientTransform="matrix(103.438,0,0,92.7061,654.203,378.178)"><stop offset="0" style="stop-color:rgb(0,105,157);stop-opacity:1"/><stop offset="1" style="stop-color:rgb(0,93,134);stop-opacity:1"/></linearGradient>
        <linearGradient id="_Linear24" x1="0" y1="0" x2="1" y2="0" gradientUnits="userSpaceOnUse" gradientTransform="matrix(103.438,0,0,92.7061,654.203,378.178)"><stop offset="0" style="stop-color:rgb(0,105,157);stop-opacity:1"/><stop offset="1" style="stop-color:rgb(0,93,134);stop-opacity:1"/></linearGradient>
        <linearGradient id="_Linear25" x1="0" y1="0" x2="1" y2="0" gradientUnits="userSpaceOnUse" gradientTransform="matrix(103.438,0,0,92.7061,654.203,378.178)"><stop offset="0" style="stop-color:rgb(0,105,157);stop-opacity:1"/><stop offset="1" style="stop-color:rgb(0,93,134);stop-opacity:1"/></linearGradient>
        <linearGradient id="_Linear26" x1="0" y1="0" x2="1" y2="0" gradientUnits="userSpaceOnUse" gradientTransform="matrix(103.438,0,0,92.7061,654.203,378.178)"><stop offset="0" style="stop-color:rgb(0,105,157);stop-opacity:1"/><stop offset="1" style="stop-color:rgb(0,93,134);stop-opacity:1"/></linearGradient>
        <linearGradient id="_Linear27" x1="0" y1="0" x2="1" y2="0" gradientUnits="userSpaceOnUse" gradientTransform="matrix(103.438,0,0,92.7061,654.203,378.178)"><stop offset="0" style="stop-color:rgb(0,105,157);stop-opacity:1"/><stop offset="1" style="stop-color:rgb(0,93,134);stop-opacity:1"/></linearGradient>
        <linearGradient id="_Linear28" x1="0" y1="0" x2="1" y2="0" gradientUnits="userSpaceOnUse" gradientTransform="matrix(103.438,0,0,92.7061,654.203,378.178)"><stop offset="0" style="stop-color:rgb(0,105,157);stop-opacity:1"/><stop offset="1" style="stop-color:rgb(0,93,134);stop-opacity:1"/></linearGradient>
        <linearGradient id="_Linear29" x1="0" y1="0" x2="1" y2="0" gradientUnits="userSpaceOnUse" gradientTransform="matrix(103.438,0,0,92.7061,654.203,378.178)"><stop offset="0" style="stop-color:rgb(0,105,157);stop-opacity:1"/><stop offset="1" style="stop-color:rgb(0,93,134);stop-opacity:1"/></linearGradient>
        <linearGradient id="_Linear30" x1="0" y1="0" x2="1" y2="0" gradientUnits="userSpaceOnUse" gradientTransform="matrix(103.438,0,0,92.7061,654.203,378.178)"><stop offset="0" style="stop-color:rgb(0,105,157);stop-opacity:1"/><stop offset="1" style="stop-color:rgb(0,93,134);stop-opacity:1"/></linearGradient>
        <linearGradient id="_Linear31" x1="0" y1="0" x2="1" y2="0" gradientUnits="userSpaceOnUse" gradientTransform="matrix(103.438,0,0,92.7061,654.203,378.178)"><stop offset="0" style="stop-color:rgb(0,105,157);stop-opacity:1"/><stop offset="1" style="stop-color:rgb(0,93,134);stop-opacity:1"/></linearGradient>
        <linearGradient id="_Linear32" x1="0" y1="0" x2="1" y2="0" gradientUnits="userSpaceOnUse" gradientTransform="matrix(103.438,0,0,92.7061,654.203,378.178)"><stop offset="0" style="stop-color:rgb(0,105,157);stop-opacity:1"/><stop offset="1" style="stop-color:rgb(0,93,134);stop-opacity:1"/></linearGradient>
        <linearGradient id="_Linear33" x1="0" y1="0" x2="1" y2="0" gradientUnits="userSpaceOnUse" gradientTransform="matrix(103.438,0,0,92.7061,654.203,378.178)"><stop offset="0" style="stop-color:rgb(0,105,157);stop-opacity:1"/><stop offset="1" style="stop-color:rgb(0,93,134);stop-opacity:1"/></linearGradient>
        <linearGradient id="_Linear34" x1="0" y1="0" x2="1" y2="0" gradientUnits="userSpaceOnUse" gradientTransform="matrix(103.438,0,0,92.7061,654.203,378.178)"><stop offset="0" style="stop-color:rgb(0,105,157);stop-opacity:1"/><stop offset="1" style="stop-color:rgb(0,93,134);stop-opacity:1"/></linearGradient>
        <linearGradient id="_Linear35" x1="0" y1="0" x2="1" y2="0" gradientUnits="userSpaceOnUse" gradientTransform="matrix(103.438,0,0,92.7061,654.203,378.178)"><stop offset="0" style="stop-color:rgb(0,105,157);stop-opacity:1"/><stop offset="1" style="stop-color:rgb(0,93,134);stop-opacity:1"/></linearGradient>
        <linearGradient id="_Linear36" x1="0" y1="0" x2="1" y2="0" gradientUnits="userSpaceOnUse" gradientTransform="matrix(103.438,0,0,92.7061,654.203,378.178)"><stop offset="0" style="stop-color:rgb(0,105,157);stop-opacity:1"/><stop offset="1" style="stop-color:rgb(0,93,134);stop-opacity:1"/></linearGradient>
        <linearGradient id="_Linear37" x1="0" y1="0" x2="1" y2="0" gradientUnits="userSpaceOnUse" gradientTransform="matrix(103.438,0,0,92.7061,654.203,378.178)"><stop offset="0" style="stop-color:rgb(0,105,157);stop-opacity:1"/><stop offset="1" style="stop-color:rgb(0,93,134);stop-opacity:1"/></linearGradient>
        <linearGradient id="_Linear38" x1="0" y1="0" x2="1" y2="0" gradientUnits="userSpaceOnUse" gradientTransform="matrix(103.438,0,0,92.7061,654.203,378.178)"><stop offset="0" style="stop-color:rgb(0,105,157);stop-opacity:1"/><stop offset="1" style="stop-color:rgb(0,93,134);stop-opacity:1"/></linearGradient>
        <linearGradient id="_Linear39" x1="0" y1="0" x2="1" y2="0" gradientUnits="userSpaceOnUse" gradientTransform="matrix(103.438,0,0,92.7061,654.203,378.178)"><stop offset="0" style="stop-color:rgb(0,105,157);stop-opacity:1"/><stop offset="1" style="stop-color:rgb(0,93,134);stop-opacity:1"/></linearGradient>
        <linearGradient id="_Linear40" x1="0" y1="0" x2="1" y2="0" gradientUnits="userSpaceOnUse" gradientTransform="matrix(103.438,0,0,92.7061,654.203,378.178)"><stop offset="0" style="stop-color:rgb(0,105,157);stop-opacity:1"/><stop offset="1" style="stop-color:rgb(0,93,134);stop-opacity:1"/></linearGradient>
        <linearGradient id="_Linear41" x1="0" y1="0" x2="1" y2="0" gradientUnits="userSpaceOnUse" gradientTransform="matrix(103.438,0,0,92.7061,654.203,378.178)"><stop offset="0" style="stop-color:rgb(0,105,157);stop-opacity:1"/><stop offset="1" style="stop-color:rgb(0,93,134);stop-opacity:1"/></linearGradient>
        <linearGradient id="_Linear42" x1="0" y1="0" x2="1" y2="0" gradientUnits="userSpaceOnUse" gradientTransform="matrix(103.438,0,0,92.7061,654.203,378.178)"><stop offset="0" style="stop-color:rgb(0,105,157);stop-opacity:1"/><stop offset="1" style="stop-color:rgb(0,93,134);stop-opacity:1"/></linearGradient>
        <linearGradient id="_Linear43" x1="0" y1="0" x2="1" y2="0" gradientUnits="userSpaceOnUse" gradientTransform="matrix(103.438,0,0,92.7061,654.203,378.178)"><stop offset="0" style="stop-color:rgb(0,105,157);stop-opacity:1"/><stop offset="1" style="stop-color:rgb(0,93,134);stop-opacity:1"/></linearGradient>
        <linearGradient id="_Linear44" x1="0" y1="0" x2="1" y2="0" gradientUnits="userSpaceOnUse" gradientTransform="matrix(103.438,0,0,92.7061,654.203,378.178)"><stop offset="0" style="stop-color:rgb(0,105,157);stop-opacity:1"/><stop offset="1" style="stop-color:rgb(0,93,134);stop-opacity:1"/></linearGradient>
        <linearGradient id="_Linear45" x1="0" y1="0" x2="1" y2="0" gradientUnits="userSpaceOnUse" gradientTransform="matrix(103.438,0,0,92.7061,654.203,378.178)"><stop offset="0" style="stop-color:rgb(0,105,157);stop-opacity:1"/><stop offset="1" style="stop-color:rgb(0,93,134);stop-opacity:1"/></linearGradient>
        <linearGradient id="_Linear46" x1="0" y1="0" x2="1" y2="0" gradientUnits="userSpaceOnUse" gradientTransform="matrix(103.438,0,0,92.7061,654.203,378.178)"><stop offset="0" style="stop-color:rgb(0,105,157);stop-opacity:1"/><stop offset="1" style="stop-color:rgb(0,93,134);stop-opacity:1"/></linearGradient>
        <linearGradient id="_Linear47" x1="0" y1="0" x2="1" y2="0" gradientUnits="userSpaceOnUse" gradientTransform="matrix(103.438,0,0,92.7061,654.203,378.178)"><stop offset="0" style="stop-color:rgb(0,105,157);stop-opacity:1"/><stop offset="1" style="stop-color:rgb(0,93,134);stop-opacity:1"/></linearGradient>
        <linearGradient id="_Linear48" x1="0" y1="0" x2="1" y2="0" gradientUnits="userSpaceOnUse" gradientTransform="matrix(103.438,0,0,92.7061,654.203,378.178)"><stop offset="0" style="stop-color:rgb(0,105,157);stop-opacity:1"/><stop offset="1" style="stop-color:rgb(0,93,134);stop-opacity:1"/></linearGradient>
        <linearGradient id="_Linear49" x1="0" y1="0" x2="1" y2="0" gradientUnits="userSpaceOnUse" gradientTransform="matrix(103.438,0,0,92.7061,654.203,378.178)"><stop offset="0" style="stop-color:rgb(0,105,157);stop-opacity:1"/><stop offset="1" style="stop-color:rgb(0,93,134);stop-opacity:1"/></linearGradient>
        <linearGradient id="_Linear50" x1="0" y1="0" x2="1" y2="0" gradientUnits="userSpaceOnUse" gradientTransform="matrix(103.438,0,0,92.7061,654.203,378.178)"><stop offset="0" style="stop-color:rgb(0,105,157);stop-opacity:1"/><stop offset="1" style="stop-color:rgb(0,93,134);stop-opacity:1"/></linearGradient>
        <linearGradient id="_Linear51" x1="0" y1="0" x2="1" y2="0" gradientUnits="userSpaceOnUse" gradientTransform="matrix(103.438,0,0,92.7061,654.203,378.178)"><stop offset="0" style="stop-color:rgb(0,105,157);stop-opacity:1"/><stop offset="1" style="stop-color:rgb(0,93,134);stop-opacity:1"/></linearGradient>
        <linearGradient id="_Linear52" x1="0" y1="0" x2="1" y2="0" gradientUnits="userSpaceOnUse" gradientTransform="matrix(103.438,0,0,92.7061,654.203,378.178)"><stop offset="0" style="stop-color:rgb(0,105,157);stop-opacity:1"/><stop offset="1" style="stop-color:rgb(0,93,134);stop-opacity:1"/></linearGradient>
        <linearGradient id="_Linear53" x1="0" y1="0" x2="1" y2="0" gradientUnits="userSpaceOnUse" gradientTransform="matrix(103.438,0,0,92.7061,654.203,378.178)"><stop offset="0" style="stop-color:rgb(0,105,157);stop-opacity:1"/><stop offset="1" style="stop-color:rgb(0,93,134);stop-opacity:1"/></linearGradient>
        <linearGradient id="_Linear54" x1="0" y1="0" x2="1" y2="0" gradientUnits="userSpaceOnUse" gradientTransform="matrix(103.438,0,0,92.7061,654.203,378.178)"><stop offset="0" style="stop-color:rgb(0,105,157);stop-opacity:1"/><stop offset="1" style="stop-color:rgb(0,93,134);stop-opacity:1"/></linearGradient>
        <linearGradient id="_Linear55" x1="0" y1="0" x2="1" y2="0" gradientUnits="userSpaceOnUse" gradientTransform="matrix(103.438,0,0,92.7061,654.203,378.178)"><stop offset="0" style="stop-color:rgb(0,105,157);stop-opacity:1"/><stop offset="1" style="stop-color:rgb(0,93,134);stop-opacity:1"/></linearGradient>
        <linearGradient id="_Linear56" x1="0" y1="0" x2="1" y2="0" gradientUnits="userSpaceOnUse" gradientTransform="matrix(103.438,0,0,92.7061,654.203,378.178)"><stop offset="0" style="stop-color:rgb(0,105,157);stop-opacity:1"/><stop offset="1" style="stop-color:rgb(0,93,134);stop-opacity:1"/></linearGradient>
        <linearGradient id="_Linear57" x1="0" y1="0" x2="1" y2="0" gradientUnits="userSpaceOnUse" gradientTransform="matrix(103.438,0,0,92.7061,654.203,378.178)"><stop offset="0" style="stop-color:rgb(0,105,157);stop-opacity:1"/><stop offset="1" style="stop-color:rgb(0,93,134);stop-opacity:1"/></linearGradient>
        <linearGradient id="_Linear58" x1="0" y1="0" x2="1" y2="0" gradientUnits="userSpaceOnUse" gradientTransform="matrix(103.438,0,0,92.7061,654.203,378.178)"><stop offset="0" style="stop-color:rgb(0,105,157);stop-opacity:1"/><stop offset="1" style="stop-color:rgb(0,93,134);stop-opacity:1"/></linearGradient>
        <linearGradient id="_Linear59" x1="0" y1="0" x2="1" y2="0" gradientUnits="userSpaceOnUse" gradientTransform="matrix(103.438,0,0,92.7061,654.203,378.178)"><stop offset="0" style="stop-color:rgb(0,105,157);stop-opacity:1"/><stop offset="1" style="stop-color:rgb(0,93,134);stop-opacity:1"/></linearGradient>
        <linearGradient id="_Linear60" x1="0" y1="0" x2="1" y2="0" gradientUnits="userSpaceOnUse" gradientTransform="matrix(103.438,0,0,92.7061,654.203,378.178)"><stop offset="0" style="stop-color:rgb(0,105,157);stop-opacity:1"/><stop offset="1" style="stop-color:rgb(0,93,134);stop-opacity:1"/></linearGradient>
        <linearGradient id="_Linear61" x1="0" y1="0" x2="1" y2="0" gradientUnits="userSpaceOnUse" gradientTransform="matrix(103.438,0,0,92.7061,654.203,378.178)"><stop offset="0" style="stop-color:rgb(0,105,157);stop-opacity:1"/><stop offset="1" style="stop-color:rgb(0,93,134);stop-opacity:1"/></linearGradient>
        <linearGradient id="_Linear62" x1="0" y1="0" x2="1" y2="0" gradientUnits="userSpaceOnUse" gradientTransform="matrix(103.438,0,0,92.7061,654.203,378.178)"><stop offset="0" style="stop-color:rgb(0,105,157);stop-opacity:1"/><stop offset="1" style="stop-color:rgb(0,93,134);stop-opacity:1"/></linearGradient>
        <linearGradient id="_Linear63" x1="0" y1="0" x2="1" y2="0" gradientUnits="userSpaceOnUse" gradientTransform="matrix(103.438,0,0,92.7061,654.203,378.178)"><stop offset="0" style="stop-color:rgb(0,105,157);stop-opacity:1"/><stop offset="1" style="stop-color:rgb(0,93,134);stop-opacity:1"/></linearGradient>
        <linearGradient id="_Linear64" x1="0" y1="0" x2="1" y2="0" gradientUnits="userSpaceOnUse" gradientTransform="matrix(103.438,0,0,92.7061,654.203,378.178)"><stop offset="0" style="stop-color:rgb(0,105,157);stop-opacity:1"/><stop offset="1" style="stop-color:rgb(0,93,134);stop-opacity:1"/></linearGradient>
        <linearGradient id="_Linear65" x1="0" y1="0" x2="1" y2="0" gradientUnits="userSpaceOnUse" gradientTransform="matrix(103.438,0,0,92.7061,654.203,378.178)"><stop offset="0" style="stop-color:rgb(0,105,157);stop-opacity:1"/><stop offset="1" style="stop-color:rgb(0,93,134);stop-opacity:1"/></linearGradient>
        <linearGradient id="_Linear66" x1="0" y1="0" x2="1" y2="0" gradientUnits="userSpaceOnUse" gradientTransform="matrix(103.438,0,0,92.7061,654.203,378.178)"><stop offset="0" style="stop-color:rgb(0,105,157);stop-opacity:1"/><stop offset="1" style="stop-color:rgb(0,93,134);stop-opacity:1"/></linearGradient>
        <linearGradient id="_Linear67" x1="0" y1="0" x2="1" y2="0" gradientUnits="userSpaceOnUse" gradientTransform="matrix(103.438,0,0,92.7061,654.203,378.178)"><stop offset="0" style="stop-color:rgb(0,105,157);stop-opacity:1"/><stop offset="1" style="stop-color:rgb(0,93,134);stop-opacity:1"/></linearGradient>
        <linearGradient id="_Linear68" x1="0" y1="0" x2="1" y2="0" gradientUnits="userSpaceOnUse" gradientTransform="matrix(103.438,0,0,92.7061,654.203,378.178)"><stop offset="0" style="stop-color:rgb(0,105,157);stop-opacity:1"/><stop offset="1" style="stop-color:rgb(0,93,134);stop-opacity:1"/></linearGradient>
        <linearGradient id="_Linear69" x1="0" y1="0" x2="1" y2="0" gradientUnits="userSpaceOnUse" gradientTransform="matrix(103.438,0,0,92.7061,654.203,378.178)"><stop offset="0" style="stop-color:rgb(0,105,157);stop-opacity:1"/><stop offset="1" style="stop-color:rgb(0,93,134);stop-opacity:1"/></linearGradient>
        <linearGradient id="_Linear70" x1="0" y1="0" x2="1" y2="0" gradientUnits="userSpaceOnUse" gradientTransform="matrix(103.438,0,0,92.7061,654.203,378.178)"><stop offset="0" style="stop-color:rgb(0,105,157);stop-opacity:1"/><stop offset="1" style="stop-color:rgb(0,93,134);stop-opacity:1"/></linearGradient>
        <linearGradient id="_Linear71" x1="0" y1="0" x2="1" y2="0" gradientUnits="userSpaceOnUse" gradientTransform="matrix(103.438,0,0,92.7061,654.203,378.178)"><stop offset="0" style="stop-color:rgb(0,105,157);stop-opacity:1"/><stop offset="1" style="stop-color:rgb(0,93,134);stop-opacity:1"/></linearGradient>
        <linearGradient id="_Linear72" x1="0" y1="0" x2="1" y2="0" gradientUnits="userSpaceOnUse" gradientTransform="matrix(103.438,0,0,92.7061,654.203,378.178)"><stop offset="0" style="stop-color:rgb(0,105,157);stop-opacity:1"/><stop offset="1" style="stop-color:rgb(0,93,134);stop-opacity:1"/></linearGradient>
        <linearGradient id="_Linear73" x1="0" y1="0" x2="1" y2="0" gradientUnits="userSpaceOnUse" gradientTransform="matrix(103.438,0,0,92.7061,654.203,378.178)"><stop offset="0" style="stop-color:rgb(0,105,157);stop-opacity:1"/><stop offset="1" style="stop-color:rgb(0,93,134);stop-opacity:1"/></linearGradient>
        <linearGradient id="_Linear74" x1="0" y1="0" x2="1" y2="0" gradientUnits="userSpaceOnUse" gradientTransform="matrix(103.438,0,0,92.7061,654.203,378.178)"><stop offset="0" style="stop-color:rgb(0,105,157);stop-opacity:1"/><stop offset="1" style="stop-color:rgb(0,93,134);stop-opacity:1"/></linearGradient>
        <linearGradient id="_Linear75" x1="0" y1="0" x2="1" y2="0" gradientUnits="userSpaceOnUse" gradientTransform="matrix(103.438,0,0,92.7061,654.203,378.178)"><stop offset="0" style="stop-color:rgb(0,105,157);stop-opacity:1"/><stop offset="1" style="stop-color:rgb(0,93,134);stop-opacity:1"/></linearGradient>
        <linearGradient id="_Linear76" x1="0" y1="0" x2="1" y2="0" gradientUnits="userSpaceOnUse" gradientTransform="matrix(103.438,0,0,92.7061,654.203,378.178)"><stop offset="0" style="stop-color:rgb(0,105,157);stop-opacity:1"/><stop offset="1" style="stop-color:rgb(0,93,134);stop-opacity:1"/></linearGradient>
        <linearGradient id="_Linear77" x1="0" y1="0" x2="1" y2="0" gradientUnits="userSpaceOnUse" gradientTransform="matrix(103.438,0,0,92.7061,654.203,378.178)"><stop offset="0" style="stop-color:rgb(0,105,157);stop-opacity:1"/><stop offset="1" style="stop-color:rgb(0,93,134);stop-opacity:1"/></linearGradient>
    </defs>
</svg>
